<svg width="82" height="82" viewBox="0 0 82 82" fill="none" xmlns="http://www.w3.org/2000/svg">
<path d="M26.7279 8.94141H17.8867V15.064H26.7279V8.94141Z" stroke="#263238" stroke-miterlimit="10"/>
<path d="M36.2826 8.94141H27.4414V15.064H36.2826V8.94141Z" stroke="#263238" stroke-miterlimit="10"/>
<path d="M56.1966 8.94141H47.3555V15.064H56.1966V8.94141Z" stroke="#263238" stroke-miterlimit="10"/>
<path d="M65.7513 8.94141H56.9102V15.064H65.7513V8.94141Z" stroke="#263238" stroke-miterlimit="10"/>
<path d="M66.3632 18.9609H17.2465L13.9961 41.3817H69.6136L66.3632 18.9609Z" fill="white" stroke="#263238" stroke-miterlimit="10"/>
<path d="M66.3613 18.4062H17.2447L16.875 21.0358H66.731L66.3613 18.4062Z" fill="white" stroke="#263238" stroke-miterlimit="10"/>
<path d="M66.7088 20.8828H16.8959L16.5156 23.588H67.0891L66.7088 20.8828Z" fill="white" stroke="#263238" stroke-miterlimit="10"/>
<path d="M67.0651 23.4297H16.5359L16.1445 26.2138H67.4565L67.0651 23.4297Z" fill="white" stroke="#263238" stroke-miterlimit="10"/>
<path d="M67.4349 26.0508H16.1686L15.7656 28.9174H67.8379L67.4349 26.0508Z" fill="white" stroke="#263238" stroke-miterlimit="10"/>
<path d="M67.8154 28.75H15.7901L15.375 31.7028H68.2305L67.8154 28.75Z" fill="white" stroke="#263238" stroke-miterlimit="10"/>
<path d="M68.2075 31.5312H15.4005L14.9727 34.5742H68.6353L68.2075 31.5312Z" fill="white" stroke="#263238" stroke-miterlimit="10"/>
<path d="M68.6085 34.3945H14.9958L14.5547 37.5318H69.0495L68.6085 34.3945Z" fill="white" stroke="#263238" stroke-miterlimit="10"/>
<path d="M30.2593 17.9336H17.0352V20.8699H30.2593V17.9336Z" fill="#76F5E4" stroke="#263238" stroke-linecap="round" stroke-linejoin="round"/>
<path d="M30.059 20.418H16.6914V23.4417H30.059V20.418Z" fill="#76F5E4" stroke="#263238" stroke-linecap="round" stroke-linejoin="round"/>
<path d="M29.9174 22.9727H16.3203V26.0878H29.9174V22.9727Z" fill="#76F5E4" stroke="#263238" stroke-linecap="round" stroke-linejoin="round"/>
<path d="M29.7158 25.6055H15.918V28.8163H29.7158V25.6055Z" fill="#76F5E4" stroke="#263238" stroke-linecap="round" stroke-linejoin="round"/>
<path d="M29.5416 28.3242H15.543V31.6351H29.5416V28.3242Z" fill="#76F5E4" stroke="#263238" stroke-linecap="round" stroke-linejoin="round"/>
<path d="M29.3414 31.1211H15.1133V34.5368H29.3414V31.1211Z" fill="#76F5E4" stroke="#263238" stroke-linecap="round" stroke-linejoin="round"/>
<path d="M29.1125 34.0117H14.6836V37.5373H29.1125V34.0117Z" fill="#76F5E4" stroke="#263238" stroke-linecap="round" stroke-linejoin="round"/>
<path d="M66.6733 17.9336H53.4492V20.8699H66.6733V17.9336Z" fill="#76F5E4" stroke="#263238" stroke-linecap="round" stroke-linejoin="round"/>
<path d="M67.016 20.418H53.6484V23.4417H67.016V20.418Z" fill="#76F5E4" stroke="#263238" stroke-linecap="round" stroke-linejoin="round"/>
<path d="M67.39 22.9727H53.793V26.0878H67.39V22.9727Z" fill="#76F5E4" stroke="#263238" stroke-linecap="round" stroke-linejoin="round"/>
<path d="M67.7939 25.6055H53.9961V28.8163H67.7939V25.6055Z" fill="#76F5E4" stroke="#263238" stroke-linecap="round" stroke-linejoin="round"/>
<path d="M68.1666 28.3242H54.168V31.6351H68.1666V28.3242Z" fill="#76F5E4" stroke="#263238" stroke-linecap="round" stroke-linejoin="round"/>
<path d="M68.5953 31.1211H54.3672V34.5368H68.5953V31.1211Z" fill="#76F5E4" stroke="#263238" stroke-linecap="round" stroke-linejoin="round"/>
<path d="M69.0266 34.0117H54.5977V37.5373H69.0266V34.0117Z" fill="#76F5E4" stroke="#263238" stroke-linecap="round" stroke-linejoin="round"/>
<path d="M48.4922 17.9336H35.1328V20.8699H48.4922V17.9336Z" fill="#76F5E4" stroke="#263238" stroke-linecap="round" stroke-linejoin="round"/>
<path d="M48.6003 20.418H35.0234V23.4417H48.6003V20.418Z" fill="#76F5E4" stroke="#263238" stroke-linecap="round" stroke-linejoin="round"/>
<path d="M48.7085 22.9727H34.9141V26.0878H48.7085V22.9727Z" fill="#76F5E4" stroke="#263238" stroke-linecap="round" stroke-linejoin="round"/>
<path d="M48.8166 25.6055H34.8047V28.8163H48.8166V25.6055Z" fill="#76F5E4" stroke="#263238" stroke-linecap="round" stroke-linejoin="round"/>
<path d="M48.9067 28.3242H34.6953V31.6351H48.9067V28.3242Z" fill="#76F5E4" stroke="#263238" stroke-linecap="round" stroke-linejoin="round"/>
<path d="M49.034 31.1211H34.5508V34.5368H49.034V31.1211Z" fill="#76F5E4" stroke="#263238" stroke-linecap="round" stroke-linejoin="round"/>
<path d="M49.1617 34.0117H34.4609V37.5373H49.1617V34.0117Z" fill="#76F5E4" stroke="#263238" stroke-linecap="round" stroke-linejoin="round"/>
<path d="M69.635 35.9805H13.9883V41.3817H69.635V35.9805Z" fill="#BABABA" stroke="#263238" stroke-linecap="round" stroke-linejoin="round"/>
<path d="M51.9885 3.88672H30.5264C30.2767 3.88672 30.0742 4.20947 30.0742 4.60761V24.3802C30.0742 24.7783 30.2767 25.1011 30.5264 25.1011H51.9885C52.2382 25.1011 52.4406 24.7783 52.4406 24.3802V4.60761C52.4406 4.20947 52.2382 3.88672 51.9885 3.88672Z" fill="#263238"/>
<path d="M44.2176 6.33594H38.2969V10.884H44.2176V6.33594Z" fill="#263238" stroke="white" stroke-miterlimit="10"/>
<path d="M42.356 13.4023H40.1484V16.7775H42.356V13.4023Z" fill="#263238" stroke="white" stroke-miterlimit="10"/>
<path d="M39.6998 17.3203H37.4922V20.6955H39.6998V17.3203Z" fill="#263238" stroke="white" stroke-miterlimit="10"/>
<path d="M44.9693 17.3203H42.7617V20.6955H44.9693V17.3203Z" fill="#263238" stroke="white" stroke-miterlimit="10"/>
<path d="M31.3086 11.2808V8.22266H31.6567V9.50251H32.0474V8.22266H32.3979V11.2808H32.0474V9.89903H31.6567V11.2808H31.3086Z" fill="#BABABA"/>
<path d="M33.2134 11.3211C33.0776 11.3211 32.9695 11.2808 32.889 11.2002C32.8085 11.1198 32.7508 11.004 32.7161 10.8529C32.6814 10.7019 32.6641 10.5232 32.6641 10.3168V9.17287C32.6641 8.96647 32.6814 8.78967 32.7161 8.64237C32.7508 8.49518 32.8085 8.38255 32.889 8.30445C32.9695 8.22649 33.0776 8.1875 33.2134 8.1875C33.3523 8.1875 33.4616 8.22649 33.5414 8.30445C33.6211 8.38255 33.6787 8.49518 33.7143 8.64237C33.7498 8.78967 33.7675 8.96647 33.7675 9.17287V10.3206C33.7675 10.5245 33.7498 10.7013 33.7143 10.8511C33.6787 11.0009 33.6211 11.1166 33.5414 11.1984C33.4616 11.2802 33.3523 11.3211 33.2134 11.3211ZM33.2134 10.9096C33.2718 10.9096 33.3148 10.8895 33.3425 10.8491C33.3701 10.8089 33.3886 10.7535 33.3981 10.6831C33.4076 10.6126 33.4123 10.5358 33.4123 10.4527V9.04444C33.4123 8.95893 33.4076 8.8822 33.3981 8.81423C33.3886 8.74624 33.3701 8.69283 33.3425 8.65371C33.3148 8.61474 33.2718 8.59524 33.2134 8.59524C33.1581 8.59524 33.1163 8.61474 33.0879 8.65371C33.0595 8.69283 33.0405 8.74624 33.0311 8.81423C33.0216 8.8822 33.0168 8.95893 33.0168 9.04444V10.4527C33.0168 10.5358 33.0212 10.6126 33.0299 10.6831C33.0385 10.7535 33.0572 10.8089 33.0856 10.8491C33.1139 10.8895 33.1566 10.9096 33.2134 10.9096Z" fill="#BABABA"/>
<path d="M34.0195 11.2808L34.0527 8.22266H34.4149L34.6872 10.3407L34.9715 8.22266H35.3219L35.3574 11.2808H35.097L35.0685 9.15523L34.7962 11.2808H34.5855L34.3084 9.14769L34.2823 11.2808H34.0195Z" fill="#BABABA"/>
<path d="M35.6289 11.2808V8.22266H36.434V8.61533H35.9794V9.49499H36.3369V9.88386H35.9794V10.8958H36.4388V11.2808H35.6289Z" fill="#BABABA"/>
<path d="M37.5078 22.6162V21.4102H37.8188V21.562H37.646V21.9135H37.7871V22.0669H37.646V22.6162H37.5078Z" fill="#BABABA"/>
<path d="M38.0995 22.6343C38.0459 22.6343 38.0033 22.6183 37.9716 22.5866C37.9398 22.5548 37.9171 22.5092 37.9034 22.4496C37.8897 22.3901 37.8828 22.3195 37.8828 22.2382V21.7871C37.8828 21.7056 37.8897 21.6359 37.9034 21.5778C37.9171 21.5197 37.9398 21.4753 37.9716 21.4446C38.0033 21.4139 38.0459 21.3984 38.0995 21.3984C38.1543 21.3984 38.1974 21.4139 38.2289 21.4446C38.2603 21.4753 38.283 21.5197 38.297 21.5778C38.311 21.6359 38.318 21.7056 38.318 21.7871V22.2397C38.318 22.32 38.311 22.3899 38.297 22.4488C38.283 22.5079 38.2603 22.5536 38.2289 22.5859C38.1974 22.6181 38.1543 22.6343 38.0995 22.6343ZM38.0995 22.4719C38.1225 22.4719 38.1395 22.464 38.1504 22.4481C38.1613 22.4323 38.1686 22.4105 38.1724 22.3826C38.1761 22.3548 38.1779 22.3245 38.1779 22.2918V21.7363C38.1779 21.7027 38.1761 21.6723 38.1724 21.6455C38.1686 21.6188 38.1613 21.5977 38.1504 21.5823C38.1395 21.567 38.1225 21.5592 38.0995 21.5592C38.0777 21.5592 38.0612 21.567 38.05 21.5823C38.0388 21.5977 38.0313 21.6188 38.0276 21.6455C38.0239 21.6723 38.022 21.7027 38.022 21.7363V22.2918C38.022 22.3245 38.0237 22.3548 38.0271 22.3826C38.0305 22.4105 38.0379 22.4323 38.0491 22.4481C38.0603 22.464 38.0771 22.4719 38.0995 22.4719Z" fill="#BABABA"/>
<path d="M38.6269 22.6327C38.5709 22.6327 38.5273 22.6162 38.4962 22.5834C38.4651 22.5507 38.4436 22.5041 38.4318 22.4435C38.42 22.3829 38.4141 22.3105 38.4141 22.2261V21.4102H38.5486V22.2514C38.5486 22.2892 38.5501 22.3247 38.5532 22.3579C38.5563 22.3912 38.5636 22.418 38.5752 22.4383C38.5866 22.4587 38.604 22.4688 38.6269 22.4688C38.6512 22.4688 38.6688 22.4587 38.6797 22.4383C38.6906 22.418 38.6978 22.3912 38.7012 22.3579C38.7046 22.3247 38.7063 22.2892 38.7063 22.2514V21.4102H38.8399V22.2261C38.8399 22.3105 38.834 22.3829 38.8222 22.4435C38.8103 22.5041 38.789 22.5507 38.7582 22.5834C38.7274 22.6162 38.6836 22.6327 38.6269 22.6327Z" fill="#BABABA"/>
<path d="M38.9492 22.6162V21.4102H39.0874V22.4644H39.2705V22.6162H38.9492Z" fill="#BABABA"/>
<path d="M39.5295 22.6343C39.4841 22.6343 39.4461 22.6201 39.4156 22.5918C39.3851 22.5634 39.362 22.5221 39.3465 22.4675C39.3309 22.4129 39.3222 22.3459 39.3203 22.2665L39.4389 22.2292C39.4402 22.2759 39.4437 22.3171 39.4496 22.3528C39.4556 22.3885 39.4646 22.4161 39.4767 22.4355C39.4888 22.4547 39.5049 22.4645 39.5248 22.4645C39.5472 22.4645 39.5631 22.4539 39.5724 22.4324C39.5818 22.4112 39.5864 22.3841 39.5864 22.3514C39.5864 22.2987 39.579 22.2555 39.5641 22.2218C39.5491 22.188 39.5292 22.1543 39.5043 22.1205L39.409 21.9865C39.3822 21.9498 39.3609 21.9088 39.3451 21.8637C39.3291 21.8185 39.3212 21.7627 39.3212 21.6963C39.3212 21.6009 39.3387 21.5275 39.3736 21.4758C39.4084 21.4242 39.456 21.3984 39.5164 21.3984C39.5519 21.3984 39.5815 21.4071 39.6051 21.4245C39.6288 21.4419 39.6476 21.4659 39.6616 21.4966C39.6756 21.5275 39.6861 21.5624 39.6929 21.6016C39.6998 21.6409 39.7041 21.6823 39.706 21.726L39.5884 21.7587C39.587 21.721 39.5844 21.6872 39.5804 21.6575C39.5763 21.6277 39.5692 21.6043 39.5589 21.5876C39.5487 21.5707 39.5335 21.5622 39.5136 21.5622C39.4931 21.5622 39.4773 21.5729 39.4665 21.5942C39.4556 21.6156 39.4501 21.6421 39.4501 21.6738C39.4501 21.7146 39.4554 21.7481 39.466 21.7744C39.4765 21.8006 39.4918 21.8278 39.5118 21.8555L39.6061 21.988C39.6372 22.0297 39.6638 22.0786 39.6859 22.1347C39.708 22.1907 39.7191 22.2586 39.7191 22.3379C39.7191 22.3955 39.7112 22.4466 39.6952 22.4913C39.6794 22.5359 39.6573 22.571 39.6289 22.5962C39.6006 22.6215 39.5675 22.6343 39.5295 22.6343Z" fill="#BABABA"/>
<path d="M42.7812 22.6162V21.4102H43.0923V21.562H42.9194V21.9135H43.0604V22.0669H42.9194V22.6162H42.7812Z" fill="#BABABA"/>
<path d="M43.3729 22.6343C43.3194 22.6343 43.2766 22.6183 43.2449 22.5866C43.2132 22.5548 43.1904 22.5092 43.1767 22.4496C43.1631 22.3901 43.1562 22.3195 43.1562 22.2382V21.7871C43.1562 21.7056 43.1631 21.6359 43.1767 21.5778C43.1904 21.5197 43.2132 21.4753 43.2449 21.4446C43.2766 21.4139 43.3194 21.3984 43.3729 21.3984C43.4277 21.3984 43.4707 21.4139 43.5021 21.4446C43.5336 21.4753 43.5563 21.5197 43.5704 21.5778C43.5843 21.6359 43.5914 21.7056 43.5914 21.7871V22.2397C43.5914 22.32 43.5843 22.3899 43.5704 22.4488C43.5563 22.5079 43.5336 22.5536 43.5021 22.5859C43.4707 22.6181 43.4277 22.6343 43.3729 22.6343ZM43.3729 22.4719C43.3958 22.4719 43.4128 22.464 43.4238 22.4481C43.4347 22.4323 43.4419 22.4105 43.4457 22.3826C43.4494 22.3548 43.4514 22.3245 43.4514 22.2918V21.7363C43.4514 21.7027 43.4494 21.6723 43.4457 21.6455C43.4419 21.6188 43.4347 21.5977 43.4238 21.5823C43.4128 21.567 43.3958 21.5592 43.3729 21.5592C43.3511 21.5592 43.3345 21.567 43.3234 21.5823C43.3121 21.5977 43.3047 21.6188 43.3009 21.6455C43.2972 21.6723 43.2954 21.7027 43.2954 21.7363V22.2918C43.2954 22.3245 43.2971 22.3548 43.3005 22.3826C43.3039 22.4105 43.3112 22.4323 43.3225 22.4481C43.3336 22.464 43.3505 22.4719 43.3729 22.4719Z" fill="#BABABA"/>
<path d="M43.9005 22.6327C43.8444 22.6327 43.8008 22.6162 43.7697 22.5834C43.7386 22.5507 43.7171 22.5041 43.7053 22.4435C43.6934 22.3829 43.6875 22.3105 43.6875 22.2261V21.4102H43.822V22.2514C43.822 22.2892 43.8235 22.3247 43.8266 22.3579C43.8297 22.3912 43.837 22.418 43.8486 22.4383C43.8601 22.4587 43.8774 22.4688 43.9005 22.4688C43.9248 22.4688 43.9422 22.4587 43.9532 22.4383C43.9641 22.418 43.9712 22.3912 43.9746 22.3579C43.978 22.3247 43.9798 22.2892 43.9798 22.2514V21.4102H44.1134V22.2261C44.1134 22.3105 44.1074 22.3829 44.0956 22.4435C44.0837 22.5041 44.0625 22.5507 44.0317 22.5834C44.0007 22.6162 43.9571 22.6327 43.9005 22.6327Z" fill="#BABABA"/>
<path d="M44.2227 22.6162V21.4102H44.3608V22.4644H44.5439V22.6162H44.2227Z" fill="#BABABA"/>
<path d="M44.803 22.6343C44.7575 22.6343 44.7196 22.6201 44.6891 22.5918C44.6586 22.5634 44.6355 22.5221 44.6199 22.4675C44.6044 22.4129 44.5956 22.3459 44.5938 22.2665L44.7125 22.2292C44.7137 22.2759 44.7173 22.3171 44.7231 22.3528C44.729 22.3885 44.7381 22.4161 44.7502 22.4355C44.7624 22.4547 44.7784 22.4645 44.7983 22.4645C44.8208 22.4645 44.8366 22.4539 44.846 22.4324C44.8553 22.4112 44.8599 22.3841 44.8599 22.3514C44.8599 22.2987 44.8525 22.2555 44.8375 22.2218C44.8226 22.188 44.8027 22.1543 44.7778 22.1205L44.6826 21.9865C44.6558 21.9498 44.6345 21.9088 44.6185 21.8637C44.6027 21.8185 44.5947 21.7627 44.5947 21.6963C44.5947 21.6009 44.6122 21.5275 44.647 21.4758C44.682 21.4242 44.7295 21.3984 44.79 21.3984C44.8254 21.3984 44.855 21.4071 44.8787 21.4245C44.9023 21.4419 44.9211 21.4659 44.9352 21.4966C44.9491 21.5275 44.9596 21.5624 44.9664 21.6016C44.9732 21.6409 44.9777 21.6823 44.9796 21.726L44.8618 21.7587C44.8606 21.721 44.8579 21.6872 44.8539 21.6575C44.8499 21.6277 44.8428 21.6043 44.8324 21.5876C44.8222 21.5707 44.807 21.5622 44.7872 21.5622C44.7666 21.5622 44.7508 21.5729 44.74 21.5942C44.729 21.6156 44.7236 21.6421 44.7236 21.6738C44.7236 21.7146 44.7289 21.7481 44.7395 21.7744C44.7501 21.8006 44.7654 21.8278 44.7852 21.8555L44.8796 21.988C44.9107 22.0297 44.9373 22.0786 44.9595 22.1347C44.9816 22.1907 44.9926 22.2586 44.9926 22.3379C44.9926 22.3955 44.9847 22.4466 44.9687 22.4913C44.953 22.5359 44.9308 22.571 44.9025 22.5962C44.8742 22.6215 44.8409 22.6343 44.803 22.6343Z" fill="#BABABA"/>
<path d="M40.1758 12.91V11.918H40.3586C40.3959 11.918 40.4263 11.9289 40.4496 11.951C40.4729 11.9731 40.49 12.0051 40.5011 12.0471C40.5121 12.0892 40.5176 12.14 40.5176 12.1996C40.5176 12.2641 40.5107 12.3162 40.4968 12.3558C40.4831 12.3954 40.4637 12.4242 40.4389 12.4422C40.414 12.4601 40.3847 12.4691 40.3509 12.4691H40.2895V12.91H40.1758ZM40.2895 12.3417H40.3325C40.3529 12.3417 40.3689 12.3371 40.3805 12.3277C40.392 12.3183 40.4 12.3031 40.4043 12.2823C40.4086 12.2614 40.4108 12.2336 40.4108 12.1984C40.4108 12.1625 40.4092 12.1334 40.4058 12.1108C40.4025 12.0883 40.3953 12.0718 40.3843 12.0612C40.3733 12.0506 40.356 12.0453 40.3325 12.0453H40.2895V12.3417Z" fill="#BABABA"/>
<path d="M40.5781 12.91V11.918H40.8393V12.0453H40.6917V12.3306H40.8077V12.4568H40.6917V12.785H40.8408V12.91H40.5781Z" fill="#BABABA"/>
<path d="M40.9062 12.91V11.918H41.0553C41.0972 11.918 41.1327 11.9259 41.1616 11.9418C41.1905 11.9577 41.2125 11.9849 41.2277 12.0233C41.2429 12.0617 41.2504 12.1139 41.2504 12.18C41.2504 12.2201 41.2481 12.256 41.2435 12.2878C41.2388 12.3197 41.2311 12.3468 41.2199 12.3693C41.209 12.3917 41.1938 12.4091 41.1743 12.4213L41.2611 12.91H41.1474L41.0722 12.4556H41.0198V12.91H40.9062ZM41.0198 12.3417H41.0553C41.0773 12.3417 41.0947 12.3366 41.1079 12.3264C41.1209 12.3162 41.1302 12.2999 41.1359 12.2775C41.1415 12.255 41.1444 12.2262 41.1444 12.1911C41.1444 12.1413 41.1385 12.1039 41.1271 12.079C41.1155 12.054 41.0937 12.0417 41.0613 12.0417H41.0198V12.3417Z" fill="#BABABA"/>
<path d="M41.3398 12.91V11.918H41.4519V12.91H41.3398Z" fill="#BABABA"/>
<path d="M41.7173 12.9227C41.6732 12.9227 41.6383 12.9096 41.6121 12.8836C41.586 12.8574 41.5672 12.8198 41.5559 12.7708C41.5448 12.7219 41.5391 12.6639 41.5391 12.597V12.2259C41.5391 12.1589 41.5448 12.1016 41.5559 12.0538C41.5672 12.0061 41.586 11.9694 41.6121 11.9441C41.6383 11.9188 41.6732 11.9062 41.7173 11.9062C41.7624 11.9062 41.7978 11.9188 41.8237 11.9441C41.8495 11.9694 41.8682 12.0061 41.8798 12.0538C41.8913 12.1016 41.897 12.1589 41.897 12.2259V12.5981C41.897 12.6644 41.8913 12.7217 41.8798 12.7702C41.8682 12.8188 41.8495 12.8565 41.8237 12.883C41.7978 12.9095 41.7624 12.9227 41.7173 12.9227ZM41.7173 12.7892C41.7362 12.7892 41.7502 12.7827 41.7591 12.7696C41.7681 12.7565 41.7742 12.7386 41.7772 12.7157C41.7803 12.6929 41.7819 12.668 41.7819 12.641V12.1842C41.7819 12.1564 41.7803 12.1315 41.7772 12.1094C41.7742 12.0875 41.7681 12.0701 41.7591 12.0575C41.7502 12.0448 41.7362 12.0385 41.7173 12.0385C41.6994 12.0385 41.6858 12.0448 41.6766 12.0575C41.6674 12.0701 41.6612 12.0875 41.6582 12.1094C41.6551 12.1315 41.6536 12.1564 41.6536 12.1842V12.641C41.6536 12.668 41.655 12.6929 41.6578 12.7157C41.6605 12.7386 41.6666 12.7565 41.6759 12.7696C41.685 12.7827 41.6989 12.7892 41.7173 12.7892Z" fill="#BABABA"/>
<path d="M41.9805 12.91V11.918H42.1272C42.1778 11.918 42.2174 11.9289 42.2459 11.951C42.2742 11.9731 42.2945 12.0069 42.3066 12.0527C42.3186 12.0985 42.3247 12.1563 42.3247 12.2266V12.5891C42.3247 12.6609 42.3186 12.7208 42.3066 12.7685C42.2945 12.8164 42.2745 12.8518 42.2467 12.8751C42.2186 12.8984 42.1804 12.91 42.1318 12.91H41.9805ZM42.0941 12.7838H42.1287C42.1549 12.7838 42.1735 12.7765 42.1847 12.7618C42.1961 12.7472 42.203 12.7257 42.2055 12.6975C42.2081 12.6693 42.2094 12.6349 42.2094 12.594V12.2143C42.2094 12.1743 42.2075 12.1421 42.2039 12.1176C42.2004 12.093 42.193 12.0751 42.1817 12.0637C42.1704 12.0523 42.1523 12.0465 42.1272 12.0465H42.0941V12.7838Z" fill="#BABABA"/>
<path d="M32.3721 18.707V14.0177C32.3542 14.0321 32.319 14.0535 32.2669 14.082C32.2147 14.1105 32.1572 14.138 32.0945 14.1641C32.0319 14.1903 31.9744 14.2153 31.9222 14.2391C31.8699 14.2629 31.8334 14.2819 31.8125 14.2962V13.561C31.8543 13.5372 31.9065 13.5039 31.9692 13.4611C32.0319 13.4183 32.0983 13.3695 32.1684 13.3148C32.2385 13.2601 32.3042 13.1994 32.3654 13.1328C32.4265 13.0662 32.4765 12.9971 32.5153 12.9258H32.9898V18.707H32.3721Z" fill="#76F5E4"/>
<path d="M33.6367 18.7049V18.0055L34.532 15.8C34.5976 15.6383 34.6596 15.4836 34.7178 15.3361C34.776 15.1886 34.8237 15.0352 34.861 14.8756C34.8983 14.7164 34.9171 14.5414 34.9171 14.3511C34.9171 14.137 34.8931 13.9728 34.8454 13.8587C34.7977 13.7445 34.723 13.6873 34.6215 13.6873C34.5261 13.6873 34.4515 13.7301 34.3978 13.8158C34.3441 13.9015 34.3075 14.0133 34.288 14.1512C34.2686 14.2894 34.2589 14.4415 34.2589 14.6081V14.8507H33.6501V14.5938C33.6501 14.2511 33.6821 13.9504 33.7464 13.6909C33.8105 13.4316 33.9127 13.2283 34.053 13.0807C34.1933 12.9333 34.3768 12.8594 34.6037 12.8594C34.914 12.8594 35.1468 12.9926 35.302 13.2591C35.4572 13.5256 35.5348 13.8968 35.5348 14.3725C35.5348 14.6105 35.5139 14.8257 35.4721 15.0184C35.4303 15.2111 35.3751 15.3957 35.3065 15.5716C35.2378 15.7476 35.1632 15.9285 35.0826 16.1141L34.3396 17.9126H35.4408V18.7049H33.6367Z" fill="#76F5E4"/>
<path d="M41.2104 16.1561V15.5986H40.7852V15.268L41.156 13.8867H41.4389V15.2904H41.5848V15.5986H41.4389V16.1561H41.2104ZM40.9891 15.2904H41.2104V14.3042L40.9891 15.2904Z" fill="#76F5E4"/>
<path d="M46.207 18.7049V18.0055L47.1023 15.8C47.1679 15.6383 47.23 15.4836 47.2882 15.3361C47.3464 15.1886 47.394 15.0352 47.4313 14.8756C47.4686 14.7164 47.4874 14.5414 47.4874 14.3511C47.4874 14.137 47.4634 13.9728 47.4157 13.8587C47.3679 13.7445 47.2933 13.6873 47.1919 13.6873C47.0963 13.6873 47.0217 13.7301 46.968 13.8158C46.9143 13.9015 46.8778 14.0133 46.8584 14.1512C46.8389 14.2894 46.8293 14.4415 46.8293 14.6081V14.8507H46.2205V14.5938C46.2205 14.2511 46.2525 13.9504 46.3168 13.6909C46.3808 13.4316 46.483 13.2283 46.6233 13.0807C46.7635 12.9333 46.9471 12.8594 47.174 12.8594C47.4843 12.8594 47.7172 12.9926 47.8723 13.2591C48.0275 13.5256 48.1052 13.8968 48.1052 14.3725C48.1052 14.6105 48.0841 14.8257 48.0425 15.0184C48.0005 15.2111 47.9454 15.3957 47.8767 15.5716C47.8082 15.7476 47.7336 15.9285 47.653 16.1141L46.9098 17.9126H48.0111V18.7049H46.207Z" fill="#76F5E4"/>
<path d="M48.4297 18.7049V18.0055L49.325 15.8C49.3906 15.6383 49.4526 15.4836 49.5108 15.3361C49.569 15.1886 49.6167 15.0352 49.654 14.8756C49.6913 14.7164 49.71 14.5414 49.71 14.3511C49.71 14.137 49.686 13.9728 49.6384 13.8587C49.5905 13.7445 49.5159 13.6873 49.4146 13.6873C49.3189 13.6873 49.2443 13.7301 49.1906 13.8158C49.1369 13.9015 49.1004 14.0133 49.0811 14.1512C49.0616 14.2894 49.052 14.4415 49.052 14.6081V14.8507H48.4432V14.5938C48.4432 14.2511 48.4752 13.9504 48.5394 13.6909C48.6035 13.4316 48.7056 13.2283 48.846 13.0807C48.9862 12.9333 49.1697 12.8594 49.3966 12.8594C49.7069 12.8594 49.9398 12.9926 50.0949 13.2591C50.2501 13.5256 50.3278 13.8968 50.3278 14.3725C50.3278 14.6105 50.3068 14.8257 50.2651 15.0184C50.2232 15.2111 50.1681 15.3957 50.0994 15.5716C50.0308 15.7476 49.9562 15.9285 49.8756 16.1141L49.1324 17.9126H50.2337V18.7049H48.4297Z" fill="#76F5E4"/>
<path d="M38.6323 20.1952V19.6377H38.207V19.307L38.5778 17.9258H38.8607V19.3295H39.0066V19.6377H38.8607V20.1952H38.6323ZM38.4108 19.3295H38.6323V18.3433L38.4108 19.3295Z" fill="#76F5E4"/>
<path d="M43.8803 20.2279C43.7924 20.2279 43.7209 20.1952 43.6658 20.1298C43.6109 20.0645 43.5706 19.9752 43.5456 19.8622C43.5203 19.7492 43.5078 19.6227 43.5078 19.4826V18.6869C43.5078 18.5393 43.5183 18.4063 43.5394 18.2876C43.5604 18.1691 43.5979 18.0752 43.6519 18.0061C43.7058 17.937 43.7813 17.9023 43.8785 17.9023C43.9617 17.9023 44.0294 17.9243 44.0815 17.9682C44.1337 18.0122 44.172 18.0761 44.1966 18.1602C44.2213 18.2442 44.2335 18.3478 44.2335 18.4711C44.2335 18.4768 44.2338 18.4828 44.2344 18.4893C44.235 18.4959 44.2353 18.5019 44.2353 18.5076H44.0015C44.0015 18.4067 43.9939 18.3311 43.9787 18.2806C43.9634 18.2302 43.9306 18.205 43.8803 18.205C43.8498 18.205 43.8252 18.2199 43.8065 18.2498C43.7878 18.2797 43.774 18.3287 43.7652 18.3969C43.7564 18.4652 43.752 18.5562 43.752 18.6701V18.9419C43.7684 18.8989 43.7933 18.8648 43.8266 18.8396C43.86 18.8143 43.899 18.8017 43.9436 18.8017C44.0208 18.7999 44.0818 18.827 44.1264 18.883C44.1708 18.939 44.2027 19.0167 44.222 19.1156C44.2414 19.2147 44.2511 19.3275 44.2511 19.4546C44.2511 19.6022 44.2394 19.7343 44.216 19.851C44.1925 19.9678 44.1538 20.0598 44.0999 20.127C44.0461 20.1942 43.9729 20.2279 43.8803 20.2279ZM43.882 19.9281C43.9161 19.9281 43.9418 19.9113 43.9594 19.8777C43.9769 19.8441 43.9893 19.7974 43.9962 19.7376C44.0033 19.6778 44.0068 19.6077 44.0068 19.5274C44.0068 19.4452 44.0047 19.372 44.0007 19.3074C43.9965 19.243 43.9857 19.1917 43.9682 19.1533C43.9506 19.1151 43.9213 19.096 43.8803 19.096C43.8604 19.096 43.8419 19.102 43.8249 19.1141C43.8079 19.1263 43.7933 19.1417 43.781 19.1604C43.7687 19.1791 43.759 19.1978 43.752 19.2164V19.5723C43.752 19.6357 43.7557 19.6946 43.7635 19.7487C43.7711 19.803 43.7845 19.8465 43.8039 19.879C43.8232 19.9117 43.8492 19.9281 43.882 19.9281Z" fill="#76F5E4"/>
<path d="M39.8122 10.0279C39.6922 10.0279 39.5955 9.99212 39.5221 9.92032C39.4487 9.84863 39.3955 9.7466 39.3623 9.61447C39.3291 9.48234 39.3125 9.32824 39.3125 9.15196V9.04635H39.637V9.1369C39.6385 9.23264 39.6441 9.3143 39.6535 9.38229C39.663 9.45026 39.6807 9.50184 39.7068 9.53713C39.7328 9.57241 39.7687 9.58993 39.8145 9.58993C39.8634 9.58993 39.9002 9.57106 39.9247 9.5333C39.9491 9.49554 39.9657 9.44028 39.9744 9.36723C39.9831 9.2942 39.9874 9.20734 39.9874 9.10667C39.9874 8.95073 39.972 8.82797 39.9412 8.73866C39.9105 8.64934 39.8508 8.60085 39.7625 8.5932H39.708V8.1741H39.7577C39.8446 8.17164 39.9045 8.1345 39.9377 8.06282C39.9709 7.99102 39.9874 7.87592 39.9874 7.71739C39.9874 7.58895 39.9752 7.48828 39.9507 7.41525C39.9262 7.34233 39.8792 7.30582 39.8098 7.30582C39.742 7.30582 39.6965 7.34616 39.6736 7.42659C39.6507 7.50715 39.6385 7.61165 39.637 7.73996V7.85322H39.3125V7.70603C39.3125 7.53232 39.3318 7.38452 39.3705 7.26239C39.4092 7.14037 39.4656 7.04722 39.5398 6.98295C39.6141 6.91879 39.704 6.88672 39.8098 6.88672C39.9188 6.88672 40.0103 6.91818 40.0845 6.98109C40.1587 7.04401 40.2151 7.13531 40.2538 7.25486C40.2925 7.3744 40.3119 7.52096 40.3119 7.69469C40.3119 7.87592 40.2882 8.02445 40.2408 8.14018C40.1935 8.25603 40.1326 8.33153 40.0584 8.36669C40.109 8.39186 40.1532 8.43528 40.1911 8.49696C40.229 8.55865 40.2585 8.63921 40.2799 8.73866C40.3012 8.83809 40.3119 8.95826 40.3119 9.09916C40.3119 9.28297 40.2956 9.44459 40.2633 9.58426C40.2309 9.72403 40.1781 9.83285 40.1046 9.91093C40.0312 9.98891 39.9337 10.0279 39.8122 10.0279Z" fill="#76F5E4"/>
<path d="M40.5469 8.4238V7.91797H40.8547V8.4238H40.5469ZM40.5469 9.69997V9.19401H40.8547V9.69997H40.5469Z" fill="#76F5E4"/>
<path d="M41.5496 10.0292C41.4216 10.0292 41.3225 9.99146 41.2523 9.91595C41.182 9.84045 41.1336 9.73349 41.1067 9.59508C41.0799 9.45664 41.0664 9.2943 41.0664 9.10799H41.3861C41.3861 9.21126 41.3905 9.30242 41.3991 9.38175C41.4078 9.46108 41.4251 9.52277 41.4513 9.56669C41.4773 9.61086 41.5155 9.63159 41.5661 9.62899C41.6214 9.62899 41.6604 9.60075 41.6833 9.54412C41.7062 9.48748 41.7207 9.40815 41.7271 9.30625C41.7334 9.20435 41.7367 9.08542 41.7367 8.94945C41.7367 8.83115 41.7322 8.728 41.7235 8.63992C41.7148 8.55183 41.6978 8.48324 41.6726 8.43414C41.6474 8.38504 41.6079 8.36048 41.5542 8.36048C41.5084 8.36048 41.4706 8.38504 41.4406 8.43414C41.4106 8.48324 41.3885 8.54802 41.3742 8.62857H41.0926L41.1115 6.92578H41.9735V7.39398H41.3861L41.3673 8.13015C41.3909 8.08487 41.4251 8.04847 41.4702 8.02071C41.5152 7.99308 41.5654 7.97667 41.6206 7.97161C41.7215 7.96408 41.8037 7.99801 41.8668 8.07352C41.93 8.14902 41.9766 8.25858 42.0066 8.40205C42.0366 8.54554 42.0516 8.71666 42.0516 8.91554C42.0516 9.07653 42.0448 9.22508 42.0315 9.36104C42.018 9.49686 41.9931 9.61456 41.9569 9.71401C41.9205 9.81344 41.8696 9.8908 41.8041 9.94618C41.7385 10.0015 41.6537 10.0292 41.5496 10.0292Z" fill="#76F5E4"/>
<path d="M42.7285 10.0243C42.618 10.0243 42.5273 9.99404 42.4562 9.9336C42.3852 9.87327 42.333 9.78518 42.2999 9.66934C42.2668 9.5536 42.2502 9.4126 42.2502 9.24654V9.20496H42.5627C42.5627 9.34091 42.5734 9.44281 42.5947 9.5108C42.6161 9.57877 42.6614 9.6127 42.7309 9.6127C42.7735 9.6127 42.8066 9.59259 42.8303 9.55224C42.854 9.51203 42.8715 9.44529 42.8824 9.35214C42.8934 9.25912 42.899 9.13698 42.899 8.98597V8.6198C42.8769 8.67766 42.8437 8.72293 42.7995 8.75564C42.7554 8.78845 42.7024 8.80609 42.6409 8.80857C42.5383 8.81102 42.4565 8.77267 42.3959 8.69334C42.335 8.61413 42.2916 8.50643 42.2656 8.3706C42.2396 8.23464 42.2266 8.08116 42.2266 7.90991C42.2266 7.70858 42.2431 7.53179 42.2762 7.37954C42.3094 7.22731 42.3631 7.10763 42.4372 7.02077C42.5115 6.93404 42.6085 6.89062 42.7285 6.89062C42.847 6.89062 42.9433 6.93281 43.0174 7.01707C43.0917 7.10146 43.1457 7.21781 43.1796 7.36634C43.2136 7.51488 43.2305 7.68476 43.2305 7.876V8.95957C43.2305 9.15845 43.2159 9.33845 43.1867 9.49944C43.1574 9.66058 43.107 9.78827 43.0352 9.88264C42.9634 9.97701 42.8611 10.0243 42.7285 10.0243ZM42.7309 8.41204C42.775 8.41204 42.8102 8.39452 42.8363 8.35924C42.8623 8.32408 42.8832 8.28632 42.899 8.24598V7.77027C42.899 7.68218 42.8943 7.60223 42.8848 7.53054C42.8753 7.45874 42.8583 7.40088 42.8338 7.35684C42.8094 7.31279 42.7743 7.29083 42.7285 7.29083C42.6843 7.29083 42.65 7.31341 42.6255 7.3587C42.6011 7.4041 42.5841 7.46701 42.5746 7.54744C42.5652 7.62813 42.5604 7.72252 42.5604 7.83071C42.5604 7.93891 42.5632 8.03711 42.5687 8.1252C42.5742 8.21329 42.5889 8.28312 42.6125 8.3347C42.6362 8.38625 42.6757 8.41204 42.7309 8.41204Z" fill="#76F5E4"/>
<path d="M46.0834 11.3211C45.9571 11.3211 45.8568 11.2783 45.7827 11.1927C45.7084 11.1072 45.6552 10.9857 45.6228 10.8284C45.5903 10.6711 45.5742 10.4854 45.5742 10.2715V9.24455C45.5742 9.02557 45.59 8.83681 45.6216 8.67827C45.6531 8.51974 45.7089 8.39833 45.7886 8.31394C45.8683 8.22968 45.9783 8.1875 46.1188 8.1875C46.2499 8.1875 46.354 8.22279 46.4314 8.29323C46.5088 8.36368 46.5644 8.46497 46.5984 8.5971C46.6323 8.72923 46.6493 8.88973 46.6493 9.0785V9.23701H46.3154V9.06331C46.3154 8.96524 46.311 8.88085 46.3024 8.8104C46.2937 8.73996 46.2764 8.68642 46.2502 8.6499C46.2242 8.6135 46.182 8.59524 46.1236 8.59524C46.062 8.59524 46.0175 8.61917 45.9897 8.66691C45.9622 8.71479 45.9449 8.7777 45.9378 8.85568C45.9306 8.93378 45.9271 9.01939 45.9271 9.11241V10.3923C45.9271 10.498 45.9326 10.5899 45.9436 10.6679C45.9546 10.746 45.9752 10.8057 46.0052 10.8473C46.0351 10.8888 46.0778 10.9096 46.1331 10.9096C46.1899 10.9096 46.2333 10.8869 46.2634 10.8416C46.2932 10.7963 46.3143 10.7334 46.326 10.6528C46.338 10.5723 46.3438 10.4767 46.3438 10.3659V10.0789H46.1379V9.7278H46.6588V11.2796H46.4338L46.4078 10.9776C46.3825 11.0782 46.3441 11.1606 46.2929 11.2248C46.2415 11.2891 46.1718 11.3211 46.0834 11.3211Z" fill="#BABABA"/>
<path d="M47.4539 11.3224C47.3118 11.3224 47.2013 11.2808 47.1224 11.1978C47.0434 11.1146 46.989 10.9964 46.9591 10.8428C46.9291 10.6894 46.9141 10.5055 46.9141 10.2916V8.22266H47.255V10.3558C47.255 10.4515 47.259 10.5414 47.2669 10.6257C47.2748 10.7101 47.2932 10.7781 47.3225 10.8296C47.3517 10.8812 47.3955 10.907 47.4539 10.907C47.5155 10.907 47.56 10.8812 47.5877 10.8296C47.6153 10.7781 47.6335 10.7101 47.6422 10.6257C47.6509 10.5414 47.6552 10.4515 47.6552 10.3558V8.22266H47.9938V10.2916C47.9938 10.5055 47.9788 10.6894 47.9488 10.8428C47.9189 10.9964 47.8647 11.1146 47.7866 11.1978C47.7084 11.2808 47.5976 11.3224 47.4539 11.3224Z" fill="#BABABA"/>
<path d="M48.2656 11.2808V8.22266H49.0708V8.61533H48.6162V9.49499H48.9736V9.88386H48.6162V10.8958H49.0755V11.2808H48.2656Z" fill="#BABABA"/>
<path d="M49.7649 11.3211C49.6496 11.3211 49.5532 11.2852 49.476 11.2134C49.3986 11.1418 49.3401 11.0367 49.3008 10.8982C49.2611 10.7598 49.2392 10.5899 49.2344 10.3886L49.5351 10.2942C49.5383 10.4125 49.5473 10.5169 49.5623 10.6076C49.5773 10.6981 49.6002 10.7679 49.631 10.817C49.6618 10.8661 49.7024 10.8907 49.753 10.8907C49.8098 10.8907 49.85 10.8637 49.8737 10.8095C49.8974 10.7555 49.9093 10.6868 49.9093 10.6037C49.9093 10.4704 49.8904 10.3609 49.8525 10.2753C49.8146 10.1897 49.764 10.1042 49.7008 10.0186L49.4594 9.67881C49.3914 9.58567 49.3374 9.4818 49.2972 9.36731C49.2568 9.25282 49.2367 9.11118 49.2367 8.94254C49.2367 8.70097 49.2809 8.51468 49.3693 8.38378C49.4577 8.25289 49.5786 8.1875 49.7316 8.1875C49.8217 8.1875 49.8966 8.20959 49.9566 8.2535C50.0167 8.29755 50.0643 8.35862 50.0999 8.43658C50.1354 8.51468 50.1618 8.60338 50.1792 8.70283C50.1965 8.80226 50.2077 8.90738 50.2123 9.01804L49.9141 9.10107C49.9108 9.00545 49.9042 8.91996 49.8938 8.84434C49.8836 8.76883 49.8655 8.70973 49.8395 8.66691C49.8133 8.62424 49.7751 8.60277 49.7245 8.60277C49.6725 8.60277 49.6326 8.62979 49.605 8.68394C49.5773 8.7381 49.5635 8.80535 49.5635 8.88591C49.5635 8.98916 49.577 9.07406 49.6038 9.1408C49.6306 9.20754 49.6692 9.27613 49.7199 9.34658L49.959 9.68251C50.0379 9.78825 50.1054 9.91223 50.1615 10.0545C50.2174 10.1966 50.2456 10.3685 50.2456 10.5698C50.2456 10.7158 50.2254 10.8454 50.1852 10.9587C50.1448 11.0719 50.0888 11.1606 50.017 11.2248C49.9452 11.2891 49.8612 11.3211 49.7649 11.3211Z" fill="#BABABA"/>
<path d="M50.6414 11.2808V8.63422H50.3359V8.22266H51.2927V8.63422H50.992V11.2808H50.6414Z" fill="#BABABA"/>
<path d="M81.5079 78.7773H2.13281V81.8743H81.5079V78.7773Z" fill="#263238"/>
<path d="M81.4479 78.7759H2.19141L14.0004 41.3789H69.6388L81.4479 78.7759Z" fill="#76F5E4" stroke="#263238" stroke-linecap="round" stroke-linejoin="round"/>
<path d="M73.0327 72.5332H10.6016L17.8771 44.7383H65.7572L73.0327 72.5332Z" fill="white" stroke="white" stroke-miterlimit="10"/>
<path d="M71.9076 71.6985H11.7344L18.4581 45.2344H65.1839L71.9076 71.6985Z" fill="#76F5E4" stroke="white" stroke-linecap="round" stroke-linejoin="round"/>
<path opacity="0.32" d="M46.1487 56.804C46.0461 54.3505 44.1094 52.4453 41.8187 52.4453C39.528 52.4453 37.5913 54.3505 37.4887 56.804C37.3809 59.3796 39.3173 61.5635 41.8187 61.5635C44.3201 61.5635 46.2565 59.3796 46.1487 56.804Z" fill="black" stroke="white" stroke-miterlimit="10"/>
<path d="M46.1487 56.804C46.0461 54.3505 44.1094 52.4453 41.8187 52.4453C39.528 52.4453 37.5913 54.3505 37.4887 56.804C37.3809 59.3796 39.3173 61.5635 41.8187 61.5635C44.3201 61.5635 46.2565 59.3796 46.1487 56.804Z" stroke="white" stroke-linecap="round" stroke-linejoin="round"/>
<path opacity="0.32" d="M24.1017 61.6082L25.6052 52.4141H16.629L14.293 61.6082H24.1017Z" fill="black" stroke="white" stroke-miterlimit="10"/>
<path d="M24.1017 61.6082L25.6052 52.4141H16.629L14.293 61.6082H24.1017Z" stroke="white" stroke-miterlimit="10"/>
<path d="M19.3564 66.9503H12.9375L17.5965 48.6133H22.9799C27.3685 48.6133 30.518 52.1849 29.9705 56.9773C29.3671 62.2578 24.5891 66.9503 19.3564 66.9503Z" stroke="white" stroke-miterlimit="10"/>
<path d="M20.5977 56.7743C21.1006 54.3221 23.3475 52.418 25.6376 52.418C27.9278 52.418 29.5531 54.3221 29.2554 56.7743C28.9428 59.3484 26.6507 61.531 24.1501 61.531C21.6494 61.531 20.0699 59.3484 20.5977 56.7743Z" stroke="white" stroke-linecap="round" stroke-linejoin="round"/>
<path opacity="0.32" d="M59.5426 61.6082L58.0391 52.4141H67.0153L69.3513 61.6082H59.5426Z" fill="black" stroke="white" stroke-miterlimit="10"/>
<path d="M59.5426 61.6082L58.0391 52.4141H67.0153L69.3513 61.6082H59.5426Z" stroke="white" stroke-miterlimit="10"/>
<path d="M64.2892 66.9503H70.7081L66.049 48.6133H60.6656C56.2771 48.6133 53.1276 52.1849 53.6751 56.9773C54.2784 62.2578 59.0565 66.9503 64.2892 66.9503Z" stroke="white" stroke-miterlimit="10"/>
<path d="M63.0483 56.7743C62.5454 54.3221 60.2985 52.418 58.0083 52.418C55.7182 52.418 54.0929 54.3221 54.3906 56.7743C54.7032 59.3484 56.9953 61.531 59.4959 61.531C61.9966 61.531 63.5761 59.3484 63.0483 56.7743Z" stroke="white" stroke-linecap="round" stroke-linejoin="round"/>
<path d="M41.8203 71.3858V45.2266" stroke="white" stroke-miterlimit="10"/>
<path d="M8.25391 38.0629L12.6433 35.1858L12.3849 34.1836L8.25391 36.8913V38.0629Z" fill="#263238"/>
<path d="M8.25391 41.1704L12.7594 40.1509L12.664 39.0781L8.25391 40.0761V41.1704Z" fill="#263238"/>
<path d="M14.1739 27.7656H13.7578V38.106H14.1739V27.7656Z" fill="white" stroke="#263238" stroke-linecap="round" stroke-linejoin="round"/>
<path d="M12.8731 32.082H12.457V42.4224H12.8731V32.082Z" fill="white" stroke="#263238" stroke-linecap="round" stroke-linejoin="round"/>
<path d="M12.875 32.0831L14.1753 27.7656V38.106L12.875 42.4234V32.0831Z" fill="#76F5E4" stroke="#263238" stroke-linecap="round" stroke-linejoin="round"/>
<path d="M13.1602 34.255L13.8828 31.8555V35.4062L13.1602 37.8057V34.255Z" stroke="#263238" stroke-linecap="round" stroke-linejoin="round"/>
<path d="M12.457 32.0831L13.7573 27.7656H14.1734L12.8731 32.0831H12.457Z" fill="white" stroke="#263238" stroke-linecap="round" stroke-linejoin="round"/>
<path d="M8.28109 43.3439V36.9688H7.26172V44.6066L10.4863 45.9186L10.1906 57.9442H11.6585L11.5057 44.6559L8.28109 43.3439Z" fill="#263238"/>
<path d="M7.26172 36.9702L7.5865 35.7188H8.60587L8.28109 36.9702H7.26172Z" fill="#263238"/>
<path d="M8.60587 42.0939V35.7188H7.5865L7.26172 36.9702H8.28109V43.3454L11.5057 44.6573L11.6585 57.9457L12.1262 56.1436L11.8305 43.4059L8.60587 42.0939Z" fill="#263238"/>
<path d="M14.4414 37.0124L14.7664 38.4373L14.9623 37.3205L15.2539 38.502L15.5111 37.4442L15.8497 38.5236L16.0934 37.4226L16.3642 38.3077L16.5673 37.1851L16.6892 38.0055L16.8788 36.8613L16.9465 37.768L17.0548 36.4727" stroke="#263238" stroke-width="0.5" stroke-linecap="round" stroke-linejoin="round"/>
<path d="M14.7695 38.4414C14.7695 38.4414 14.9385 39.2935 14.9306 39.9443" stroke="#263238" stroke-width="0.5" stroke-linecap="round" stroke-linejoin="round"/>
<path d="M16.948 37.7695C16.948 37.7695 16.7502 39.2408 16.7188 39.829" stroke="#263238" stroke-width="0.5" stroke-linecap="round" stroke-linejoin="round"/>
<path d="M16.815 38.741L16.6927 38.0078L16.2969 39.9675" stroke="#263238" stroke-width="0.5" stroke-linecap="round" stroke-linejoin="round"/>
<path d="M16.7276 39.4654L16.3667 38.3086L15.6992 39.966" stroke="#263238" stroke-width="0.5" stroke-linecap="round" stroke-linejoin="round"/>
<path d="M16.2945 39.9689L15.8508 38.5273L15.1562 39.8938" stroke="#263238" stroke-width="0.5" stroke-linecap="round" stroke-linejoin="round"/>
<path d="M14.9219 39.3162L15.2561 38.5039L15.699 39.967" stroke="#263238" stroke-width="0.5" stroke-linecap="round" stroke-linejoin="round"/>
<path d="M14.8203 38.668L15.15 39.8444" stroke="#263238" stroke-width="0.5" stroke-linecap="round" stroke-linejoin="round"/>
<path d="M14.418 36.1164L14.7123 36.571L14.8135 35.5591L15.0711 36.3657L15.2734 35.1484L15.5954 36.2631L15.8897 35.1631L16.1197 36.2631L16.4325 35.3244L16.5336 36.4537L16.8004 35.6471L16.7728 36.703L16.9842 36.2366" stroke="#263238" stroke-width="0.5" stroke-linecap="round" stroke-linejoin="round"/>
<path d="M14.6406 37.0543L14.7142 36.5703L15.1649 37.3476" stroke="#263238" stroke-width="0.5" stroke-linecap="round" stroke-linejoin="round"/>
<path d="M15.0352 37.2003L15.0719 36.3644L15.4675 37.303L15.5963 36.2617L15.955 37.3323L16.1206 36.2617L16.3597 37.2297" stroke="#263238" stroke-width="0.5" stroke-linecap="round" stroke-linejoin="round"/>
<path d="M16.332 37.0984L16.5344 36.4531L16.6724 36.9958L16.7736 36.7025L16.8818 36.8628" stroke="#263238" stroke-width="0.5" stroke-linecap="round" stroke-linejoin="round"/>
<path d="M15.6634 35.0547C15.0575 35.0547 14.5386 35.3679 14.3201 35.8129H13.7469L13.4967 36.5062L13.4805 36.5386V38.2086L13.7423 37.5584V36.7062L14.211 36.3131C14.2122 36.3536 14.2154 36.3935 14.2211 36.433C14.2189 36.462 14.2184 36.4901 14.2227 36.5149C14.2227 36.5149 14.1984 36.9633 14.3908 37.2093C14.5832 37.4553 14.6853 37.4525 14.7715 37.4408C14.8321 37.4326 14.9017 37.3786 14.9383 37.3469C15.1519 37.4511 15.399 37.5116 15.6634 37.5116C16.4665 37.5116 17.1176 36.9616 17.1176 36.2831C17.1176 35.6047 16.4665 35.0547 15.6634 35.0547ZM15.6634 37.3294C15.0654 37.3294 14.5609 37.0003 14.3986 36.5493C14.4015 36.4236 14.4239 36.2335 14.5131 36.0032C14.6736 35.589 14.8799 35.6377 14.9868 35.5159C15.0672 35.4244 15.0915 35.3054 15.0986 35.2518C15.27 35.1845 15.461 35.1457 15.6634 35.1457C16.3925 35.1457 16.9835 35.6346 16.9835 36.2375C16.9835 36.8405 16.3925 37.3294 15.6634 37.3294Z" fill="#263238"/>
<path d="M73.987 38.0629L69.5977 35.1858L69.856 34.1836L73.987 36.8913V38.0629Z" fill="#263238"/>
<path d="M73.9899 41.1704L69.4844 40.1509L69.5798 39.0781L73.9899 40.0761V41.1704Z" fill="#263238"/>
<path d="M68.0644 38.1055H68.4805V27.7651H68.0644V38.1055Z" fill="white" stroke="#263238" stroke-linecap="round" stroke-linejoin="round"/>
<path d="M69.3613 42.4258H69.7773V32.0854H69.3613V42.4258Z" fill="white" stroke="#263238" stroke-linecap="round" stroke-linejoin="round"/>
<path d="M69.3628 32.0831L68.0625 27.7656V38.106L69.3628 42.4234V32.0831Z" fill="#76F5E4" stroke="#263238" stroke-linecap="round" stroke-linejoin="round"/>
<path d="M69.0742 34.255L68.3516 31.8555V35.4062L69.0742 37.8057V34.255Z" stroke="#263238" stroke-linecap="round" stroke-linejoin="round"/>
<path d="M69.7788 32.0831L68.4786 27.7656H68.0625L69.3628 32.0831H69.7788Z" fill="white" stroke="#263238" stroke-linecap="round" stroke-linejoin="round"/>
<path d="M73.9556 43.3439V36.9688H74.9749V44.6066L71.7503 45.9186L72.046 57.9442H70.5781L70.7309 44.6559L73.9556 43.3439Z" fill="#263238"/>
<path d="M74.9731 36.9702L74.6483 35.7188H73.6289L73.9537 36.9702H74.9731Z" fill="#263238"/>
<path d="M73.6297 42.0939V35.7188H74.6491L74.9739 36.9702H73.9545V43.3454L70.7299 44.6573L70.5771 57.9457L70.1094 56.1436L70.4051 43.4059L73.6297 42.0939Z" fill="#263238"/>
<path d="M67.8009 37.0124L67.4759 38.4373L67.28 37.3205L66.9884 38.502L66.7312 37.4442L66.3926 38.5236L66.1489 37.4226L65.8781 38.3077L65.675 37.1851L65.5531 38.0055L65.3635 36.8613L65.2958 37.768L65.1875 36.4727" stroke="#263238" stroke-width="0.5" stroke-linecap="round" stroke-linejoin="round"/>
<path d="M67.4739 38.4414C67.4739 38.4414 67.3049 39.2935 67.3128 39.9443" stroke="#263238" stroke-width="0.5" stroke-linecap="round" stroke-linejoin="round"/>
<path d="M65.2969 37.7695C65.2969 37.7695 65.4947 39.2408 65.5261 39.829" stroke="#263238" stroke-width="0.5" stroke-linecap="round" stroke-linejoin="round"/>
<path d="M65.4297 38.741L65.5519 38.0078L65.9478 39.9675" stroke="#263238" stroke-width="0.5" stroke-linecap="round" stroke-linejoin="round"/>
<path d="M65.5156 39.4654L65.8765 38.3086L66.544 39.966" stroke="#263238" stroke-width="0.5" stroke-linecap="round" stroke-linejoin="round"/>
<path d="M65.9492 39.9689L66.3929 38.5273L67.0874 39.8938" stroke="#263238" stroke-width="0.5" stroke-linecap="round" stroke-linejoin="round"/>
<path d="M67.324 39.3162L66.9898 38.5039L66.5469 39.967" stroke="#263238" stroke-width="0.5" stroke-linecap="round" stroke-linejoin="round"/>
<path d="M67.4234 38.668L67.0938 39.8444" stroke="#263238" stroke-width="0.5" stroke-linecap="round" stroke-linejoin="round"/>
<path d="M67.828 36.1164L67.5336 36.571L67.4324 35.5591L67.1749 36.3657L66.9725 35.1484L66.6506 36.2631L66.3562 35.1631L66.1262 36.2631L65.8135 35.3244L65.7123 36.4537L65.4456 35.6471L65.4731 36.703L65.2617 36.2366" stroke="#263238" stroke-width="0.5" stroke-linecap="round" stroke-linejoin="round"/>
<path d="M67.6064 37.0543L67.5327 36.5703L67.082 37.3476" stroke="#263238" stroke-width="0.5" stroke-linecap="round" stroke-linejoin="round"/>
<path d="M67.2113 37.2003L67.1745 36.3644L66.779 37.303L66.6502 36.2617L66.2915 37.3323L66.1259 36.2617L65.8867 37.2297" stroke="#263238" stroke-width="0.5" stroke-linecap="round" stroke-linejoin="round"/>
<path d="M65.9131 37.0984L65.7107 36.4531L65.5727 36.9958L65.4715 36.7025L65.3633 36.8628" stroke="#263238" stroke-width="0.5" stroke-linecap="round" stroke-linejoin="round"/>
<path d="M66.5792 35.0547C67.185 35.0547 67.704 35.3679 67.9225 35.8129H68.4957L68.7459 36.5062L68.7621 36.5386V38.2086L68.5003 37.5584V36.7062L68.0316 36.3131C68.0304 36.3536 68.0272 36.3935 68.0215 36.433C68.0237 36.462 68.0242 36.4901 68.0198 36.5149C68.0198 36.5149 68.0442 36.9633 67.8517 37.2093C67.6593 37.4553 67.5573 37.4525 67.4711 37.4408C67.4105 37.4326 67.3408 37.3786 67.3043 37.3469C67.0907 37.4511 66.8435 37.5116 66.5792 37.5116C65.776 37.5116 65.125 36.9616 65.125 36.2831C65.125 35.6047 65.776 35.0547 66.5792 35.0547ZM66.5792 37.3294C67.1772 37.3294 67.6817 37.0003 67.8439 36.5493C67.841 36.4236 67.8187 36.2335 67.7295 36.0032C67.569 35.589 67.3627 35.6377 67.2557 35.5159C67.1754 35.4244 67.1511 35.3054 67.144 35.2518C66.9725 35.1845 66.7816 35.1457 66.5792 35.1457C65.8501 35.1457 65.2591 35.6346 65.2591 36.2375C65.2591 36.8405 65.8501 37.3294 66.5792 37.3294Z" fill="#263238"/>
</svg>
