<svg width="123" height="81" viewBox="0 0 123 81" fill="none" xmlns="http://www.w3.org/2000/svg">
<path d="M109.832 75.168H101.746V75.2227H109.832V75.168Z" fill="#EBEBEB"/>
<path d="M80.8597 75.7656H78.7383V75.8203H80.8597V75.7656Z" fill="#EBEBEB"/>
<path d="M101.501 73.1367H96.8164V73.1914H101.501V73.1367Z" fill="#EBEBEB"/>
<path d="M23.3484 73.5039H12.8047V73.5586H23.3484V73.5039Z" fill="#EBEBEB"/>
<path d="M27.0727 73.5039H25.5273V73.5586H27.0727V73.5039Z" fill="#EBEBEB"/>
<path d="M54.9634 74.4297H32.0938V74.4844H54.9634V74.4297Z" fill="#EBEBEB"/>
<path d="M57.8577 61.8874H10.7221C10.3524 61.8874 9.99782 61.7557 9.7364 61.5214C9.47499 61.287 9.32813 60.9692 9.32812 60.6378V1.23862C9.33134 0.909117 9.47963 0.59409 9.74069 0.362112C10.0018 0.130135 10.3545 -1.26326e-05 10.7221 9.19677e-10H57.8577C58.2274 9.1968e-10 58.582 0.13165 58.8434 0.365989C59.1048 0.600328 59.2517 0.918159 59.2517 1.24956V60.6378C59.2517 60.9692 59.1048 61.287 58.8434 61.5214C58.582 61.7557 58.2274 61.8874 57.8577 61.8874ZM10.7221 0.0437677C10.3688 0.0443462 10.0301 0.170418 9.78027 0.394371C9.53044 0.618325 9.3898 0.921905 9.38916 1.23862V60.6378C9.3898 60.9545 9.53044 61.2581 9.78027 61.482C10.0301 61.706 10.3688 61.8321 10.7221 61.8326H57.8577C58.211 61.8321 58.5497 61.706 58.7995 61.482C59.0494 61.2581 59.19 60.9545 59.1907 60.6378V1.23862C59.19 0.921905 59.0494 0.618325 58.7995 0.394371C58.5497 0.170418 58.211 0.0443462 57.8577 0.0437677H10.7221Z" fill="#EBEBEB"/>
<path d="M110.663 61.8874H63.5229C63.1534 61.8868 62.7992 61.7549 62.5379 61.5207C62.2766 61.2865 62.1296 60.969 62.1289 60.6378V1.23862C62.1328 0.909296 62.2812 0.594599 62.5422 0.362744C62.8031 0.130889 63.1555 0.000557662 63.5229 0H110.663C111.03 0.00113894 111.382 0.131795 111.642 0.363649C111.902 0.595503 112.049 0.909874 112.052 1.23862V60.6378C112.052 60.9684 111.906 61.2856 111.646 61.5198C111.386 61.754 111.032 61.8862 110.663 61.8874ZM63.5229 0.0437677C63.1695 0.0443462 62.8309 0.170418 62.5811 0.394371C62.3312 0.618325 62.1906 0.921905 62.1899 1.23862V60.6378C62.1906 60.9545 62.3312 61.2581 62.5811 61.482C62.8309 61.706 63.1695 61.8321 63.5229 61.8326H110.663C111.017 61.8321 111.355 61.706 111.605 61.482C111.855 61.2581 111.996 60.9545 111.996 60.6378V1.23862C111.996 0.921905 111.855 0.618325 111.605 0.394371C111.355 0.170418 111.017 0.0443462 110.663 0.0437677H63.5229Z" fill="#EBEBEB"/>
<path d="M122.062 71.6484H0V71.7031H122.062V71.6484Z" fill="#EBEBEB"/>
<path d="M46.8255 17.8477H21.5586V71.6096H46.8255V17.8477Z" fill="#E6E6E6"/>
<path d="M45.7515 18.8203H22.6328V71.6084H45.7515V18.8203Z" fill="#F0F0F0"/>
<path d="M31.3983 45.1172L35.463 21.7344H33.6467L29.582 45.1172H31.3983Z" fill="#FAFAFA"/>
<path d="M37.3789 45.1172H44.1265V21.7344H41.4436L37.3789 45.1172Z" fill="#FAFAFA"/>
<path d="M31.9238 21.7344H24.3828V45.1172H27.8592L31.9238 21.7344Z" fill="#FAFAFA"/>
<path d="M44.1252 50.9609H24.3828V70.2931H44.1252V50.9609Z" fill="#EBEBEB"/>
<path d="M26.0673 45.9883H24.3828V49.9252H26.0673V45.9883Z" fill="#E6E6E6"/>
<path d="M26.0664 49.9258H26.3984V45.9889H26.0664V49.9258Z" fill="#E0E0E0"/>
<path d="M24.8002 48.1721C25.1926 48.1721 25.5107 47.887 25.5107 47.5353C25.5107 47.1836 25.1926 46.8984 24.8002 46.8984C24.4079 46.8984 24.0898 47.1836 24.0898 47.5353C24.0898 47.887 24.4079 48.1721 24.8002 48.1721Z" fill="#E0E0E0"/>
<path d="M25.374 48.6367H25.0078V49.4333H25.374V48.6367Z" fill="#E0E0E0"/>
<path d="M25.1669 47.5352C25.1669 47.7112 25.1087 47.8832 24.9998 48.0296C24.8908 48.176 24.7359 48.2901 24.5546 48.3577C24.3734 48.4252 24.1738 48.4431 23.9812 48.4091C23.7886 48.3751 23.6116 48.2907 23.4724 48.1665C23.3333 48.0424 23.2383 47.8841 23.1994 47.7116C23.1605 47.5392 23.1795 47.3602 23.2539 47.1974C23.3284 47.0346 23.455 46.8952 23.6177 46.7968C23.7805 46.6984 23.9721 46.6454 24.1684 46.6445C24.2993 46.644 24.429 46.6666 24.5501 46.7111C24.6712 46.7556 24.7813 46.8211 24.8741 46.9039C24.9669 46.9866 25.0405 47.085 25.0908 47.1934C25.141 47.3017 25.1669 47.4179 25.1669 47.5352Z" fill="#EBEBEB"/>
<path d="M98.1762 57.7266H59.2969V69.1783H98.1762V57.7266Z" fill="#EBEBEB"/>
<path d="M62.4163 69.9531H59.9727V71.6075H62.4163V69.9531Z" fill="#E6E6E6"/>
<path d="M101.143 56.3281H98.6992V71.6074H101.143V56.3281Z" fill="#E6E6E6"/>
<path d="M98.0771 56.3281H58.668V71.6074H59.9716V70.3425H97.4252V71.6074H98.7289V56.3281H98.0771ZM59.9716 58.3721H78.0368V68.2986H59.9716V58.3721ZM79.3502 58.3721H97.4155V68.2986H79.3405L79.3502 58.3721Z" fill="#F5F5F5"/>
<path d="M59.8529 80.685C85.9944 80.685 107.186 79.5759 107.186 78.2077C107.186 76.8396 85.9944 75.7305 59.8529 75.7305C33.7114 75.7305 12.5195 76.8396 12.5195 78.2077C12.5195 79.5759 33.7114 80.685 59.8529 80.685Z" fill="#F5F5F5"/>
<path d="M82.7851 58.7883C82.7851 58.7883 78.4787 58.3857 80.8004 55.7771C81.1689 55.3668 81.6062 55.0103 82.0967 54.7201C82.1162 55.3941 82.2407 56.7947 82.9291 56.5234C83.681 56.2279 84.3939 54.3612 84.6209 53.7485C85.6936 53.5064 86.7988 53.3996 87.9044 53.4312C87.9496 54.0869 87.9553 54.7444 87.9215 55.4007C87.4064 55.6765 86.403 56.2761 86.3591 56.7312C86.3151 57.1864 87.3161 57.0989 87.7579 57.0267C87.6501 57.7726 87.4545 58.5061 87.1745 59.2151C86.5495 59.0553 85.5999 58.8737 85.3118 59.1669C85.0237 59.4602 85.6829 60.3946 86.0979 60.8848C85.8859 61.0943 85.6437 61.2775 85.3777 61.4297C82.2993 63.1301 82.7851 58.7883 82.7851 58.7883Z" fill="#407BFF"/>
<g opacity="0.2">
<path d="M83.1408 58.4641C83.5411 56.6127 85.8115 55.0655 87.3885 54.0654C87.5814 53.9451 87.3422 53.6956 87.1444 53.8182C85.4771 54.873 83.192 56.4858 82.7697 58.4356C82.7233 58.6413 83.0871 58.6698 83.1334 58.4641H83.1408Z" fill="white"/>
</g>
<path d="M82.7822 67.9754L82.9921 67.9623C82.5722 62.3929 83.4975 60.5831 84.347 60.0447C84.4792 59.9531 84.6343 59.8917 84.7989 59.8657C84.9635 59.8398 85.1326 59.8502 85.2918 59.8959L85.3748 59.7252C85.1832 59.6653 84.9779 59.6491 84.7776 59.6781C84.5772 59.7071 84.3882 59.7805 84.2274 59.8915C83.3339 60.4561 82.3574 62.3184 82.7822 67.9754Z" fill="#407BFF"/>
<path d="M83.9613 67.4129C84.1663 62.6751 83.2509 60.9068 82.4453 60.2591C82.3223 60.1434 82.1735 60.0523 82.0086 59.9916C81.8437 59.9309 81.6664 59.902 81.4883 59.9068L81.5176 60.0928C81.6674 60.0915 81.8159 60.118 81.9538 60.1707C82.0916 60.2235 82.2157 60.3012 82.3183 60.3991C83.0824 61.0272 83.9539 62.7517 83.7538 67.402L83.9613 67.4129Z" fill="#407BFF"/>
<path d="M83.07 67.4171L83.2775 67.404C83.0627 64.5591 83.4558 62.8631 84.4127 62.5042C85.6602 62.0359 87.5253 63.9091 87.5448 63.9267L87.7011 63.8041C87.6205 63.7231 85.7188 61.8127 84.3322 62.3313C83.2702 62.7296 82.8454 64.4387 83.07 67.4171Z" fill="#407BFF"/>
<path d="M83.5979 67.5969C83.5979 65.8462 83.1927 64.7673 82.392 64.3887C81.4887 63.9642 80.439 64.5944 80.4023 64.6207L80.5195 64.7739C80.5195 64.7739 81.496 64.1808 82.2943 64.5551C83.0267 64.8986 83.3904 65.9228 83.388 67.5969H83.5979Z" fill="#407BFF"/>
<g opacity="0.2">
<path d="M82.7861 67.9793L82.996 67.9662C82.5761 62.3968 83.5014 60.587 84.3509 60.0486C84.4831 59.957 84.6382 59.8956 84.8028 59.8696C84.9674 59.8437 85.1366 59.8541 85.2957 59.8998L85.3787 59.7291C85.1871 59.6692 84.9818 59.653 84.7815 59.682C84.5812 59.711 84.3921 59.7844 84.2313 59.8954C83.3378 60.46 82.3613 62.3224 82.7861 67.9793Z" fill="black"/>
<path d="M83.9652 67.4168C84.1702 62.679 83.2548 60.9108 82.4492 60.263C82.3262 60.1473 82.1774 60.0562 82.0125 59.9955C81.8477 59.9348 81.6704 59.9059 81.4922 59.9107L81.5215 60.0967C81.6713 60.0954 81.8198 60.1219 81.9577 60.1746C82.0955 60.2274 82.2196 60.3051 82.3222 60.4031C83.0863 61.0311 83.9578 62.7556 83.7577 67.4059L83.9652 67.4168Z" fill="black"/>
<path d="M83.0739 67.4171L83.2815 67.404C83.0666 64.5591 83.4597 62.8631 84.4166 62.5042C85.6641 62.0359 87.5292 63.9091 87.5488 63.9267L87.705 63.8041C87.6244 63.7231 85.7227 61.8127 84.3361 62.3313C83.2741 62.7296 82.8494 64.4387 83.0739 67.4171Z" fill="black"/>
<path d="M83.6018 67.5969C83.6018 65.8462 83.1966 64.7673 82.3959 64.3887C81.4926 63.9642 80.4429 64.5944 80.4062 64.6207L80.5234 64.7739C80.5234 64.7739 81.4999 64.1808 82.2982 64.5551C83.0306 64.8986 83.3943 65.9228 83.3919 67.5969H83.6018Z" fill="black"/>
</g>
<path d="M88.1019 76.7467L88.8612 67.0938H78.6836L79.4306 76.7467C79.4709 77.2744 79.7333 77.7687 80.1648 78.1295C80.5963 78.4903 81.1646 78.6906 81.7547 78.69H85.7779C86.3676 78.6896 86.9353 78.4889 87.3665 78.1283C87.7978 77.7677 88.0606 77.274 88.1019 76.7467Z" fill="#263238"/>
<path d="M84.9142 59.777C84.9142 59.777 82.8001 56.5929 86.523 56.547C87.0587 56.5443 87.5922 56.6099 88.1073 56.7417C87.6191 57.0371 86.8428 57.5777 87.2431 57.7134C87.6435 57.849 89.1717 57.5842 89.8992 57.4398C91.1125 58.1098 92.1804 58.9713 93.0509 59.9827C92.2982 60.6089 91.4944 61.1838 90.6462 61.7028C90.2752 61.3723 89.7137 60.9565 89.3963 61.1228C89.079 61.2892 88.7299 62.1755 88.5175 62.8079C87.823 63.1087 87.0826 63.3152 86.3203 63.4206C86.3399 62.9108 86.3203 62.0879 86.0567 61.9566C85.793 61.8253 84.797 62.6678 84.2428 63.1799C81.3915 62.0792 84.9142 59.777 84.9142 59.777Z" fill="#407BFF"/>
<path opacity="0.3" d="M84.9142 59.777C84.9142 59.777 82.8001 56.5929 86.523 56.547C87.0587 56.5443 87.5922 56.6099 88.1073 56.7417C87.6191 57.0371 86.8428 57.5777 87.2431 57.7134C87.6435 57.849 89.1717 57.5842 89.8992 57.4398C91.1125 58.1098 92.1804 58.9713 93.0509 59.9827C92.2982 60.6089 91.4944 61.1838 90.6462 61.7028C90.2752 61.3723 89.7137 60.9565 89.3963 61.1228C89.079 61.2892 88.7299 62.1755 88.5175 62.8079C87.823 63.1087 87.0826 63.3152 86.3203 63.4206C86.3399 62.9108 86.3203 62.0879 86.0567 61.9566C85.793 61.8253 84.797 62.6678 84.2428 63.1799C81.3915 62.0792 84.9142 59.777 84.9142 59.777Z" fill="white"/>
<path d="M80.025 62.1669C79.5733 62.0509 79.0167 62.8541 78.7262 63.3377C77.79 62.9652 76.925 62.4631 76.1629 61.8496C76.3704 61.4426 76.6048 60.8779 76.4559 60.6635C76.3069 60.449 75.494 60.6175 74.9179 60.7795C74.3943 60.283 73.9052 59.7583 73.4531 59.2082C73.8968 58.8864 74.366 58.5939 74.8568 58.3329C75.6942 58.416 76.8782 58.4839 77.1663 58.2256C77.4543 57.9674 76.8147 57.7486 76.3509 57.6457C77.1287 57.3407 77.9505 57.1351 78.7921 57.0352C78.902 57.3744 79.1461 57.8974 79.6002 57.8974C80.0543 57.8974 80.5254 57.4444 80.8379 57.1074C84.3362 57.7814 81.5703 60.0245 81.5703 60.0245C81.5703 60.0245 84.5803 63.2261 81.0015 63.655C80.8062 63.1079 80.4473 62.2741 80.025 62.1669Z" fill="#407BFF"/>
<path opacity="0.2" d="M80.025 62.1669C79.5733 62.0509 79.0167 62.8541 78.7262 63.3377C77.79 62.9652 76.925 62.4631 76.1629 61.8496C76.3704 61.4426 76.6048 60.8779 76.4559 60.6635C76.3069 60.449 75.494 60.6175 74.9179 60.7795C74.3943 60.283 73.9052 59.7583 73.4531 59.2082C73.8968 58.8864 74.366 58.5939 74.8568 58.3329C75.6942 58.416 76.8782 58.4839 77.1663 58.2256C77.4543 57.9674 76.8147 57.7486 76.3509 57.6457C77.1287 57.3407 77.9505 57.1351 78.7921 57.0352C78.902 57.3744 79.1461 57.8974 79.6002 57.8974C80.0543 57.8974 80.5254 57.4444 80.8379 57.1074C84.3362 57.7814 81.5703 60.0245 81.5703 60.0245C81.5703 60.0245 84.5803 63.2261 81.0015 63.655C80.8062 63.1079 80.4473 62.2741 80.025 62.1669Z" fill="white"/>
<path d="M76.0531 64.3808C76.4804 64.5865 77.2909 64.917 77.618 64.6237C77.9451 64.3305 77.4447 63.0919 77.2005 62.5885C77.5745 62.1645 78.0534 61.8244 78.5994 61.595C81.9121 60.282 80.7965 64.5427 80.7965 64.5427C80.7965 64.5427 84.9564 65.4444 82.271 67.7443C82.0775 67.9093 81.8702 68.0607 81.6509 68.1973C81.441 67.7597 81.0333 67.0266 80.6256 67.1272C80.2179 67.2279 80.3815 68.1733 80.506 68.7619C79.8027 69.0198 79.0635 69.1906 78.3089 69.2696C78.2112 68.8539 78.0257 68.3024 77.7278 68.3177C77.43 68.333 76.9955 68.9326 76.7513 69.3441C76.1236 69.3401 75.4973 69.2896 74.8789 69.1931C74.8789 69.1931 75.0474 66.5867 76.0531 64.3808Z" fill="#407BFF"/>
<path d="M87.2762 63.6363C87.2762 63.6363 89.5173 60.3166 91.1627 63.3081C91.4193 63.7824 91.5923 64.2896 91.6753 64.8115C90.9893 64.5401 89.5221 64.0434 89.5026 64.7196C89.4782 65.4549 91.0552 66.8336 91.5826 67.2734C91.368 68.246 91.0041 69.1872 90.5011 70.0702C89.8233 69.8294 89.1607 69.5554 88.5163 69.2495C88.4553 68.7134 88.2722 67.6455 87.8401 67.4157C87.408 67.1859 87.0589 68.035 86.9442 68.4245C86.2397 68.0193 85.5851 67.5483 84.9912 67.0196C85.4208 66.5819 86.0092 65.8882 85.8334 65.5293C85.643 65.1354 84.437 65.3105 83.7657 65.433C83.6435 65.1728 83.5613 64.899 83.5215 64.6189C83.1041 61.3911 87.2762 63.6363 87.2762 63.6363Z" fill="#407BFF"/>
<g opacity="0.3">
<path d="M85.4661 59.8669C87.5216 59.0835 90.1289 59.4971 92.16 60.0595C92.3846 60.1208 92.4798 59.8056 92.2552 59.7444C90.1094 59.1491 87.4411 58.7618 85.283 59.5824C85.0682 59.6656 85.2537 59.9479 85.4661 59.8669Z" fill="white"/>
</g>
<g opacity="0.3">
<path d="M74.2466 59.4658C76.3338 59.1463 78.8239 59.1091 80.7159 60.0435C80.9234 60.1464 81.1065 59.8641 80.9014 59.7612C78.9094 58.7786 76.3387 58.8158 74.1489 59.1507C73.9048 59.1857 74.0171 59.5008 74.2466 59.4658Z" fill="white"/>
</g>
<g opacity="0.2">
<path d="M80.5234 64.6145C78.0602 64.8531 76.1951 66.8992 75.2186 68.7593C75.1185 68.9497 75.4334 69.116 75.5335 68.9257C76.4466 67.1881 78.1994 65.1682 80.5234 64.9406C80.7554 64.9187 80.7676 64.5905 80.5234 64.6145Z" fill="white"/>
</g>
<g opacity="0.2">
<path d="M87.4499 64.0711C89.1588 65.1849 89.7422 67.6863 90.0791 69.391C90.1206 69.5989 90.4722 69.5114 90.4307 69.3057C90.0767 67.5024 89.4224 64.9617 87.6354 63.7888C87.445 63.664 87.2619 63.9485 87.4499 64.0711Z" fill="white"/>
</g>
<path d="M100.852 8.0625H78.3465C77.1951 8.0625 76.2617 8.89922 76.2617 9.93138V27.364C76.2617 28.3962 77.1951 29.2329 78.3465 29.2329H100.852C102.004 29.2329 102.937 28.3962 102.937 27.364V9.93138C102.937 8.89922 102.004 8.0625 100.852 8.0625Z" fill="#407BFF"/>
<path opacity="0.7" d="M100.852 8.0625H78.3465C77.1951 8.0625 76.2617 8.89922 76.2617 9.93138V27.364C76.2617 28.3962 77.1951 29.2329 78.3465 29.2329H100.852C102.004 29.2329 102.937 28.3962 102.937 27.364V9.93138C102.937 8.89922 102.004 8.0625 100.852 8.0625Z" fill="white"/>
<path d="M91.2371 13.0973C91.2371 13.0973 90.6732 17.5112 92.5237 17.8548C94.8184 18.2925 94.2643 14.3643 94.2643 14.3643L92.5237 12.1016L91.2371 13.0973Z" fill="#263238"/>
<path opacity="0.6" d="M91.2371 13.0973C91.2371 13.0973 90.6732 17.5112 92.5237 17.8548C94.8184 18.2925 94.2643 14.3643 94.2643 14.3643L92.5237 12.1016L91.2371 13.0973Z" fill="black"/>
<path d="M96.9541 14.1797C96.9541 14.1797 99.742 15.9567 98.5507 17.366C97.3594 18.7753 95.3771 16.7839 95.3404 15.6787C95.3038 14.5736 96.9541 14.1797 96.9541 14.1797Z" fill="#263238"/>
<path d="M88.5368 24.9067L86.8547 25.0511C86.8547 25.0511 84.9017 24.3377 84.2768 24.5062C83.8447 24.6222 83.2197 25.4998 83.3442 25.8893C83.3906 26.0337 83.7763 26.1497 83.9423 26.1628C84.162 26.1803 84.5648 25.7252 84.7846 25.712C85.0775 25.6901 85.6488 26.1322 85.9442 26.1366C86.2956 26.1091 86.6447 26.0609 86.989 25.9921L88.9713 26.0337L88.5368 24.9067Z" fill="#FFC3BD"/>
<path d="M87.8555 24.8492L88.2558 26.1381C88.2558 26.1381 91.156 26.4926 92.2937 26.044C93.4313 25.5954 92.5744 18.0542 91.4783 18.1374C90.3822 18.2206 90.99 22.3938 90.99 23.7046C90.9852 24.7047 87.8555 24.8492 87.8555 24.8492Z" fill="#263238"/>
<path opacity="0.5" d="M87.8555 24.8492L88.2558 26.1381C88.2558 26.1381 91.156 26.4926 92.2937 26.044C93.4313 25.5954 92.5744 18.0542 91.4783 18.1374C90.3822 18.2206 90.99 22.3938 90.99 23.7046C90.9852 24.7047 87.8555 24.8492 87.8555 24.8492Z" fill="white"/>
<path d="M91.261 18.1446C90.1625 19.5539 92.6867 21.7641 92.7404 29.2331H100.889C101.133 27.2154 101.971 19.311 100.797 17.8185C99.4465 16.105 92.3083 16.8031 91.261 18.1446Z" fill="#263238"/>
<path opacity="0.2" d="M91.261 18.1446C90.1625 19.5539 92.6867 21.7641 92.7404 29.2331H100.889C101.133 27.2154 101.971 19.311 100.797 17.8185C99.4465 16.105 92.3083 16.8031 91.261 18.1446Z" fill="white"/>
<path d="M93.668 16.1674L95.3036 14.5742C95.4598 15.7953 96.1849 16.7976 96.3289 16.837L96.1507 17.3972C94.1684 19.3952 93.7095 17.476 93.7095 17.476C94.1953 17.1149 93.668 16.1674 93.668 16.1674Z" fill="#FFC3BD"/>
<path d="M96.057 13.8472C96.0468 14.1746 95.9006 14.4868 95.6468 14.7225C95.3075 15.0333 94.9145 14.7991 94.8315 14.3921C94.7533 14.0223 94.8315 13.4183 95.2636 13.2651C95.6957 13.1119 96.0594 13.438 96.057 13.8472Z" fill="#FFC3BD"/>
<path d="M94.2061 25.1708L92.5241 25.3152C92.5241 25.3152 90.6199 24.4596 89.9486 24.5406C89.514 24.5931 88.6791 25.5231 88.7548 25.9105C88.7841 26.0593 89.1918 26.149 89.3554 26.184C89.6215 26.2431 90.4539 25.7464 90.4539 25.7464C90.4539 25.7464 91.301 26.3679 91.6135 26.4029C91.9666 26.387 92.3168 26.3378 92.6584 26.2563L94.6407 26.3L94.2061 25.1708Z" fill="#FFC3BD"/>
<path d="M100.386 17.6977C99.8438 17.3673 99.2653 17.6868 98.6769 20.7089C97.9836 24.2935 97.5198 24.4554 93.5234 25.101L93.958 26.3899C93.958 26.3899 97.3757 26.7663 99.0211 25.8035C100.667 24.8406 101.843 18.5906 100.386 17.6977Z" fill="#263238"/>
<path opacity="0.5" d="M100.386 17.6977C99.8438 17.3673 99.2653 17.6868 98.6769 20.7089C97.9836 24.2935 97.5198 24.4554 93.5234 25.101L93.958 26.3899C93.958 26.3899 97.3757 26.7663 99.0211 25.8035C100.667 24.8406 101.843 18.5906 100.386 17.6977Z" fill="white"/>
<path d="M94.5409 18.5146C95.8689 18.4905 97.0651 17.0681 96.4084 16.8164C95.5308 16.8441 94.6575 16.9408 93.7987 17.1053C93.413 17.3679 93.1664 18.5408 94.5409 18.5146Z" fill="#FFC3BD"/>
<path opacity="0.2" d="M94.6469 15.2107L95.411 15.1406C95.411 15.1406 95.3768 17.1889 93.8144 17.3662C94.105 16.9526 93.668 16.1648 93.668 16.1648L94.6469 15.2107Z" fill="#263238"/>
<path d="M95.082 12.8234C95.4335 14.2699 95.724 15.0993 95.165 16.0556C94.9875 16.3689 94.7176 16.6327 94.3847 16.8182C94.0518 17.0037 93.6685 17.1039 93.2766 17.108C92.8846 17.1121 92.4989 17.0198 92.1613 16.8412C91.8236 16.6626 91.5471 16.4046 91.3615 16.095C90.6169 14.9177 90.1629 12.749 91.5178 11.7402C91.8052 11.5145 92.154 11.3608 92.5289 11.2946C92.9038 11.2283 93.2915 11.2519 93.653 11.3629C94.0145 11.4738 94.337 11.6683 94.5878 11.9267C94.8387 12.185 95.0092 12.4981 95.082 12.8344V12.8234Z" fill="#FFC3BD"/>
<path d="M92.8281 13.9066C92.8671 14.0204 92.8281 14.1255 92.7402 14.1517C92.6523 14.178 92.562 14.1014 92.5229 13.9876C92.4838 13.8738 92.5229 13.7688 92.6132 13.7403C92.7036 13.7119 92.7914 13.7885 92.8281 13.9066Z" fill="#263238"/>
<path d="M91.3896 14.3267C91.4262 14.4405 91.3896 14.5455 91.3017 14.5718C91.2138 14.598 91.121 14.5214 91.0844 14.4055C91.0478 14.2895 91.0844 14.1866 91.1723 14.1582C91.2602 14.1297 91.3529 14.2085 91.3896 14.3267Z" fill="#263238"/>
<path d="M93.1412 13.3526C93.1541 13.3506 93.1659 13.3453 93.1754 13.3373C93.1816 13.3302 93.1862 13.322 93.1888 13.3132C93.1914 13.3045 93.1921 13.2954 93.1907 13.2864C93.1894 13.2774 93.186 13.2688 93.1809 13.261C93.1757 13.2532 93.1689 13.2464 93.1608 13.241C93.0628 13.1712 92.9471 13.1243 92.824 13.1045C92.7009 13.0846 92.5742 13.0924 92.4552 13.1272C92.4363 13.134 92.4211 13.1473 92.4128 13.164C92.4046 13.1808 92.4041 13.1998 92.4113 13.2169C92.4189 13.2339 92.4337 13.2476 92.4524 13.2549C92.4711 13.2623 92.4923 13.2628 92.5114 13.2563C92.6039 13.2301 92.702 13.2241 92.7976 13.2389C92.8932 13.2538 92.9834 13.289 93.0607 13.3417C93.0715 13.3502 93.0849 13.3557 93.0992 13.3577C93.1134 13.3596 93.128 13.3579 93.1412 13.3526Z" fill="#263238"/>
<path d="M90.6282 14.0537C90.6395 14.0486 90.6494 14.0412 90.657 14.0321C90.6646 14.0229 90.6698 14.0124 90.6721 14.0012C90.685 13.9105 90.7212 13.8237 90.778 13.7477C90.8348 13.6718 90.9106 13.6087 90.9993 13.5635C91.0078 13.5583 91.0152 13.5515 91.0208 13.5437C91.0264 13.5359 91.0303 13.5271 91.0321 13.518C91.0339 13.5088 91.0337 13.4994 91.0314 13.4903C91.0291 13.4812 91.0248 13.4726 91.0188 13.4651C91.0095 13.4525 90.9959 13.4429 90.9801 13.4378C90.9643 13.4326 90.947 13.4322 90.9309 13.4366C90.8207 13.4907 90.7262 13.5671 90.655 13.6599C90.5838 13.7526 90.5378 13.859 90.5208 13.9706C90.5172 13.9885 90.5215 14.0071 90.5329 14.0222C90.5443 14.0373 90.5619 14.0478 90.5818 14.0515C90.5968 14.0559 90.6128 14.0566 90.6282 14.0537Z" fill="#263238"/>
<path d="M92.9301 15.6952C92.8659 15.7295 92.799 15.7594 92.7299 15.7849C92.7246 15.7871 92.7189 15.7883 92.7131 15.7885C92.7073 15.7887 92.7015 15.7879 92.696 15.7861C92.6906 15.7842 92.6856 15.7814 92.6813 15.7779C92.6771 15.7743 92.6737 15.77 92.6713 15.7652C92.669 15.7602 92.6679 15.7548 92.668 15.7494C92.6681 15.744 92.6694 15.7386 92.672 15.7337C92.6745 15.7288 92.6781 15.7244 92.6826 15.7208C92.6871 15.7171 92.6924 15.7144 92.6982 15.7127C92.875 15.6531 93.0336 15.5567 93.1609 15.4316C93.2882 15.3065 93.3806 15.1561 93.4306 14.9927C93.4317 14.9875 93.434 14.9825 93.4374 14.9781C93.4407 14.9737 93.4451 14.97 93.4501 14.9671C93.4551 14.9642 93.4607 14.9623 93.4666 14.9615C93.4725 14.9606 93.4785 14.9608 93.4843 14.9621C93.49 14.9629 93.4955 14.9647 93.5004 14.9675C93.5053 14.9703 93.5095 14.9739 93.5127 14.9783C93.516 14.9826 93.5181 14.9875 93.5191 14.9926C93.5201 14.9977 93.5199 15.003 93.5184 15.0081C93.4768 15.1521 93.4032 15.2872 93.3022 15.4052C93.2011 15.5233 93.0746 15.6219 92.9301 15.6952Z" fill="#263238"/>
<path d="M91.8906 14.25C91.8506 14.6487 91.7521 15.0408 91.5977 15.4164C91.7042 15.4473 91.8169 15.4572 91.9282 15.4455C92.0394 15.4338 92.1465 15.4007 92.2421 15.3486L91.8906 14.25Z" fill="#ED893E"/>
<path d="M91.1982 14.1562H90.832C90.832 14.1562 91.0859 14.3532 91.1982 14.1562Z" fill="#263238"/>
<path d="M92.6225 13.75H92.2539C92.2539 13.75 92.5053 13.9382 92.6225 13.75Z" fill="#263238"/>
<path d="M93.5003 11.7729C93.5003 11.7729 92.9144 13.587 90.1363 13.3638C90.1363 13.3638 89.2526 10.5189 92.7094 10.4883C92.7094 10.4883 95.4363 9.42036 96.2004 12.0902C96.2004 12.0902 98.6099 14.574 96.3346 15.4581C94.6429 16.1146 93.5003 11.7729 93.5003 11.7729Z" fill="#263238"/>
<path d="M92.8113 26.3292H79.8117C79.7626 26.3256 79.7131 26.3311 79.6665 26.3454C79.6199 26.3598 79.5771 26.3826 79.5408 26.4126C79.5046 26.4425 79.4756 26.4788 79.4558 26.5193C79.436 26.5597 79.4258 26.6034 79.4258 26.6476C79.4258 26.6918 79.436 26.7355 79.4558 26.776C79.4756 26.8164 79.5046 26.8528 79.5408 26.8827C79.5771 26.9126 79.6199 26.9355 79.6665 26.9498C79.7131 26.9642 79.7626 26.9697 79.8117 26.966H92.8113C92.9005 26.9594 92.9835 26.923 93.0441 26.864C93.1047 26.805 93.1383 26.7278 93.1383 26.6476C93.1383 26.5675 93.1047 26.4902 93.0441 26.4312C92.9835 26.3723 92.9005 26.3358 92.8113 26.3292Z" fill="#263238"/>
<path d="M80.008 26.774H84.4511C84.4777 26.7738 84.5039 26.768 84.5276 26.757C84.5513 26.746 84.5717 26.7302 84.5872 26.7107C84.6026 26.6913 84.6128 26.6688 84.6167 26.6452C84.6206 26.6216 84.6182 26.5975 84.6097 26.5748L82.1685 20.3336C82.1344 20.2504 82.073 20.1785 81.9924 20.1273C81.9117 20.0761 81.8157 20.0481 81.7169 20.0469H77.2738C77.2468 20.0469 77.2203 20.0527 77.1964 20.0638C77.1725 20.0749 77.1519 20.091 77.1363 20.1107C77.1208 20.1305 77.1108 20.1532 77.1071 20.1772C77.1034 20.2011 77.1061 20.2254 77.1151 20.2482L79.5564 26.4873C79.5886 26.5715 79.6495 26.6445 79.7306 26.6959C79.8116 26.7473 79.9087 26.7746 80.008 26.774Z" fill="#263238"/>
<path d="M79.7931 26.774H84.2362C84.2629 26.7738 84.2891 26.768 84.3128 26.757C84.3364 26.746 84.3568 26.7302 84.3723 26.7107C84.3878 26.6913 84.3979 26.6688 84.4018 26.6452C84.4058 26.6216 84.4034 26.5975 84.3949 26.5748L81.9536 20.3336C81.9196 20.2504 81.8581 20.1785 81.7775 20.1273C81.6969 20.0761 81.6008 20.0481 81.502 20.0469H77.0589C77.032 20.0469 77.0055 20.0527 76.9815 20.0638C76.9576 20.0749 76.937 20.091 76.9215 20.1107C76.906 20.1305 76.8959 20.1532 76.8922 20.1772C76.8885 20.2011 76.8913 20.2254 76.9003 20.2482L79.3415 26.4829C79.3748 26.5669 79.4359 26.6397 79.5166 26.6917C79.5973 26.7437 79.6938 26.7724 79.7931 26.774Z" fill="#407BFF"/>
<path opacity="0.5" d="M80.539 23.8357H81.1029C81.1064 23.8355 81.1097 23.8347 81.1127 23.8331C81.1156 23.8316 81.1182 23.8295 81.1201 23.827C81.1219 23.8244 81.1232 23.8215 81.1236 23.8185C81.124 23.8154 81.1236 23.8123 81.1225 23.8094L80.8051 23.0194C80.8006 23.0089 80.7925 22.9999 80.782 22.9936C80.7715 22.9873 80.7591 22.9841 80.7465 22.9844H80.185C80.1817 22.9842 80.1784 22.9847 80.1754 22.986C80.1724 22.9872 80.1698 22.9892 80.1678 22.9916C80.1658 22.994 80.1646 22.9968 80.1642 22.9998C80.1638 23.0027 80.1643 23.0057 80.1655 23.0085L80.4731 23.7985C80.4779 23.8104 80.487 23.8205 80.4989 23.8272C80.5109 23.834 80.525 23.8369 80.539 23.8357Z" fill="white"/>
<path d="M85.0187 26.966C84.9696 26.9697 84.9202 26.9642 84.8735 26.9498C84.8269 26.9355 84.7841 26.9126 84.7478 26.8827C84.7116 26.8528 84.6826 26.8164 84.6628 26.776C84.643 26.7355 84.6328 26.6918 84.6328 26.6476C84.6328 26.6034 84.643 26.5597 84.6628 26.5193C84.6826 26.4788 84.7116 26.4425 84.7478 26.4126C84.7841 26.3826 84.8269 26.3598 84.8735 26.3454C84.9202 26.3311 84.9696 26.3256 85.0187 26.3292H92.8112C92.9003 26.3358 92.9834 26.3723 93.044 26.4312C93.1045 26.4902 93.1381 26.5675 93.1381 26.6476C93.1381 26.7278 93.1045 26.805 93.044 26.864C92.9834 26.923 92.9003 26.9594 92.8112 26.966H85.0187Z" fill="#407BFF"/>
<path d="M94.7957 26.9792H76.2617V27.3578C76.2616 27.561 76.2988 27.7628 76.3716 27.9552H94.7957C94.9347 27.9469 95.065 27.8915 95.1602 27.8003C95.2554 27.7091 95.3084 27.5889 95.3084 27.4639C95.3084 27.339 95.2554 27.2188 95.1602 27.1276C95.065 27.0364 94.9347 26.981 94.7957 26.9727V26.9792Z" fill="#407BFF"/>
<path d="M78.3461 29.2346H94.285V27.9609H76.3711C76.5098 28.332 76.7751 28.6546 77.1295 28.8832C77.4839 29.1117 77.9095 29.2347 78.3461 29.2346Z" fill="#407BFF"/>
<path opacity="0.6" d="M94.7957 26.9792H76.2617V27.3578C76.2616 27.561 76.2988 27.7628 76.3716 27.9552H94.7957C94.9347 27.9469 95.065 27.8915 95.1602 27.8003C95.2554 27.7091 95.3084 27.5889 95.3084 27.4639C95.3084 27.339 95.2554 27.2188 95.1602 27.1276C95.065 27.0364 94.9347 26.981 94.7957 26.9727V26.9792Z" fill="white"/>
<path opacity="0.4" d="M78.3461 29.2346H94.285V27.9609H76.3711C76.5098 28.332 76.7751 28.6546 77.1295 28.8832C77.4839 29.1117 77.9095 29.2347 78.3461 29.2346Z" fill="white"/>
<path d="M27.1588 62.1109H24.2879C23.5595 62.1077 22.8589 61.8602 22.3239 61.4171C21.7889 60.974 21.4584 60.3674 21.3974 59.7168L20.875 53.7797L21.9687 53.7031L22.4911 59.6402C22.5295 60.0454 22.7357 60.4231 23.0691 60.6989C23.4026 60.9747 23.8391 61.1287 24.2927 61.1305H27.1637L27.1588 62.1109Z" fill="#263238"/>
<path d="M25.71 54.413C26.0409 54.3821 26.3447 54.2348 26.5548 54.0035C26.7648 53.7721 26.864 53.4755 26.8305 53.1788L25.9614 45.5785C25.9446 45.4318 25.8958 45.2895 25.8176 45.1597C25.7395 45.0299 25.6335 44.9152 25.5059 44.8221C25.3783 44.729 25.2314 44.6594 25.0737 44.6172C24.9161 44.575 24.7507 44.5611 24.587 44.5762H16.2867C16.1773 44.5861 16.0712 44.6152 15.9743 44.6619C15.8775 44.7086 15.7919 44.7721 15.7225 44.8485C15.6531 44.925 15.6012 45.013 15.5698 45.1075C15.5385 45.2019 15.5282 45.301 15.5397 45.3991L16.4918 53.7412C16.5028 53.8393 16.5353 53.9346 16.5874 54.0215C16.6394 54.1084 16.7101 54.1853 16.7954 54.2477C16.8806 54.3101 16.9788 54.3568 17.0842 54.3852C17.1896 54.4135 17.3002 54.423 17.4097 54.413H25.71Z" fill="#407BFF"/>
<path opacity="0.3" d="M25.71 54.413C26.0409 54.3821 26.3447 54.2348 26.5548 54.0035C26.7648 53.7721 26.864 53.4755 26.8305 53.1788L25.9614 45.5785C25.9446 45.4318 25.8958 45.2895 25.8176 45.1597C25.7395 45.0299 25.6335 44.9152 25.5059 44.8221C25.3783 44.729 25.2314 44.6594 25.0737 44.6172C24.9161 44.575 24.7507 44.5611 24.587 44.5762H16.2867C16.1773 44.5861 16.0712 44.6152 15.9743 44.6619C15.8775 44.7086 15.7919 44.7721 15.7225 44.8485C15.6531 44.925 15.6012 45.013 15.5698 45.1075C15.5385 45.2019 15.5282 45.301 15.5397 45.3991L16.4918 53.7412C16.5028 53.8393 16.5353 53.9346 16.5874 54.0215C16.6394 54.1084 16.7101 54.1853 16.7954 54.2477C16.8806 54.3101 16.9788 54.3568 17.0842 54.3852C17.1896 54.4135 17.3002 54.423 17.4097 54.413H25.71Z" fill="black"/>
<path d="M16.4879 53.7412L15.5358 45.3991C15.5243 45.301 15.5346 45.2019 15.5659 45.1075C15.5973 45.013 15.6492 44.925 15.7186 44.8485C15.788 44.7721 15.8736 44.7086 15.9704 44.6619C16.0672 44.6152 16.1734 44.5861 16.2828 44.5762C16.4465 44.5611 16.6119 44.575 16.7696 44.6172C16.9272 44.6594 17.0741 44.729 17.2017 44.8221C17.3294 44.9152 17.4353 45.0299 17.5135 45.1597C17.5916 45.2895 17.6405 45.4318 17.6573 45.5785L18.5263 53.1766C18.5598 53.4733 18.4606 53.7699 18.2506 54.0013C18.0406 54.2326 17.7368 54.3799 17.4058 54.4108C17.1851 54.431 16.9644 54.3718 16.7923 54.2463C16.6202 54.1207 16.5107 53.939 16.4879 53.7412Z" fill="#407BFF"/>
<path d="M25.8751 76.5012L25.9483 76.2999C25.9938 76.1729 26.083 76.062 26.2032 75.9834C26.3234 75.9047 26.4684 75.8623 26.6172 75.8622H34.3804C34.5407 75.8622 34.6963 75.9112 34.8215 76.0011C34.9466 76.091 35.0338 76.2165 35.0688 76.3568L35.0883 76.4378C35.1218 76.5738 35.2061 76.6955 35.3273 76.7827C35.4485 76.8699 35.5994 76.9173 35.7548 76.917C35.857 76.9173 35.958 76.8969 36.0503 76.8573C36.1426 76.8178 36.2237 76.7602 36.2877 76.6887C36.3517 76.6173 36.397 76.5338 36.4201 76.4445C36.4432 76.3552 36.4436 76.2624 36.4213 76.173L36.4017 76.0942C36.3005 75.6811 36.0449 75.3115 35.6773 75.0464C35.3097 74.7814 34.8521 74.6368 34.3804 74.6367H26.6172C26.1839 74.6391 25.7624 74.7633 25.412 74.9918C25.0617 75.2203 24.8001 75.5416 24.6642 75.9104L24.5885 76.1139C24.555 76.2058 24.5462 76.3036 24.5629 76.3992C24.5797 76.4948 24.6214 76.5855 24.6848 76.6639C24.7481 76.7422 24.8313 76.806 24.9274 76.85C25.0235 76.894 25.1299 76.917 25.2379 76.917C25.379 76.9151 25.516 76.8742 25.6301 76.7997C25.7441 76.7253 25.8297 76.621 25.8751 76.5012Z" fill="#263238"/>
<path opacity="0.7" d="M31.6444 74.6367H29.2422V75.86H31.6444V74.6367Z" fill="black"/>
<path d="M30.4414 76.7796C30.2601 76.7796 30.0862 76.715 29.958 76.6001C29.8298 76.4852 29.7578 76.3294 29.7578 76.1668V59.8984H31.1225V76.1668C31.1225 76.329 31.0508 76.4845 30.9231 76.5994C30.7955 76.7142 30.6222 76.779 30.4414 76.7796Z" fill="#263238"/>
<path d="M31.3983 77.8908C31.3988 78.0607 31.343 78.2268 31.2381 78.3682C31.1331 78.5096 30.9836 78.6199 30.8087 78.6851C30.6337 78.7503 30.4411 78.7675 30.2552 78.7345C30.0694 78.7014 29.8986 78.6197 29.7647 78.4996C29.6307 78.3795 29.5395 78.2264 29.5026 78.0598C29.4658 77.8932 29.485 77.7205 29.5577 77.5637C29.6304 77.4069 29.7535 77.2729 29.9112 77.1788C30.0689 77.0847 30.2543 77.0347 30.4438 77.0352C30.6967 77.0357 30.9392 77.1261 31.118 77.2864C31.2969 77.4468 31.3977 77.6641 31.3983 77.8908Z" fill="#407BFF"/>
<path d="M25.5038 77.8908C25.5043 78.0606 25.4485 78.2266 25.3437 78.368C25.2388 78.5094 25.0895 78.6197 24.9147 78.6849C24.7399 78.7502 24.5474 78.7675 24.3616 78.7346C24.1758 78.7018 24.0051 78.6202 23.871 78.5004C23.7369 78.3805 23.6455 78.2276 23.6084 78.0612C23.5713 77.8947 23.5901 77.7221 23.6625 77.5652C23.7348 77.4083 23.8575 77.2742 24.0149 77.1799C24.1723 77.0855 24.3574 77.0352 24.5468 77.0352C24.8 77.0357 25.0427 77.126 25.2219 77.2863C25.4012 77.4466 25.5025 77.6639 25.5038 77.8908Z" fill="#407BFF"/>
<path d="M37.3983 77.8908C37.3988 78.0607 37.343 78.2268 37.2381 78.3682C37.1331 78.5096 36.9837 78.6199 36.8087 78.6851C36.6337 78.7503 36.4411 78.7675 36.2552 78.7345C36.0694 78.7014 35.8986 78.6197 35.7647 78.4996C35.6307 78.3795 35.5395 78.2264 35.5026 78.0598C35.4658 77.8932 35.485 77.7205 35.5577 77.5637C35.6304 77.4069 35.7535 77.2729 35.9112 77.1788C36.069 77.0847 36.2543 77.0347 36.4438 77.0352C36.6967 77.0357 36.9392 77.1261 37.118 77.2864C37.2969 77.4468 37.3977 77.6641 37.3983 77.8908Z" fill="#407BFF"/>
<path opacity="0.7" d="M31.1225 60.8477H29.7578V63.7429H31.1225V60.8477Z" fill="black"/>
<path d="M34.8743 62.2434H25.8759C25.5091 62.2427 25.1535 62.1301 24.8678 61.924C24.582 61.718 24.383 61.4308 24.3037 61.1098L24.0352 60.0156H36.8615L36.4074 61.2499C36.3014 61.5392 36.096 61.7911 35.8206 61.9696C35.5453 62.148 35.2141 62.2438 34.8743 62.2434Z" fill="#263238"/>
<path opacity="0.5" d="M34.8743 62.2434H25.8759C25.5091 62.2427 25.1535 62.1301 24.8678 61.924C24.582 61.718 24.383 61.4308 24.3037 61.1098L24.0352 60.0156H36.8615L36.4074 61.2499C36.3014 61.5392 36.096 61.7911 35.8206 61.9696C35.5453 62.148 35.2141 62.2438 34.8743 62.2434Z" fill="white"/>
<path d="M23.7509 58.9102H37.1314C37.2785 58.9102 37.4243 58.9361 37.5602 58.9866C37.6962 59.0371 37.8197 59.1111 37.9237 59.2044C38.0278 59.2976 38.1103 59.4084 38.1666 59.5302C38.2229 59.6521 38.2519 59.7827 38.2519 59.9146V60.2013C38.2519 60.3789 38.1732 60.5492 38.0331 60.6748C37.893 60.8004 37.703 60.8709 37.5049 60.8709H23.3798C23.2817 60.8709 23.1846 60.8536 23.094 60.82C23.0033 60.7863 22.921 60.737 22.8516 60.6748C22.7822 60.6126 22.7272 60.5388 22.6897 60.4576C22.6521 60.3763 22.6328 60.2892 22.6328 60.2013V59.9146C22.6328 59.6486 22.7505 59.3934 22.9601 59.2051C23.1698 59.0168 23.4541 58.9107 23.7509 58.9102Z" fill="#407BFF"/>
<path d="M39.8817 54.0759C39.8817 54.0759 45.4966 53.8242 45.9018 55.5049C46.3071 57.1856 45.4526 76.951 45.4526 76.951L43.6827 77.0495C43.6827 77.0495 40.619 61.2144 42.1252 58.5008L37.6602 58.5555L39.8817 54.0759Z" fill="#FF8B7B"/>
<g style="mix-blend-mode:multiply" opacity="0.1">
<path d="M45.7913 68.0573C44.6952 68.0464 43.4648 68.0704 42.2539 68.1164C42.3784 69.088 42.5151 70.0531 42.6543 70.9613C43.6882 70.7857 44.7096 70.5555 45.7132 70.2719C45.74 69.5651 45.7644 68.8189 45.7913 68.0573Z" fill="black"/>
</g>
<path d="M45.8921 76.8872C45.8829 76.8862 45.8743 76.8827 45.8674 76.8773C45.8604 76.8718 45.8554 76.8646 45.853 76.8566C45.8506 76.8484 45.8512 76.8397 45.8547 76.8318C45.8582 76.8239 45.8645 76.8173 45.8726 76.8128C45.8994 76.7953 46.5439 76.408 46.8711 76.4671C46.9317 76.4773 46.9858 76.5078 47.0224 76.5524C47.0452 76.5768 47.059 76.6069 47.0621 76.6386C47.0651 76.6703 47.0572 76.7021 47.0395 76.7297C46.8846 76.8457 46.687 76.9058 46.4853 76.8982C46.2876 76.9109 46.0891 76.9073 45.8921 76.8872ZM46.0361 76.8238C46.3974 76.8391 46.8808 76.8063 46.9614 76.6881C46.9614 76.6728 46.9833 76.6487 46.9443 76.5984C46.9345 76.5839 46.9209 76.5718 46.9048 76.563C46.8886 76.5542 46.8704 76.5491 46.8515 76.548C46.8223 76.5448 46.7928 76.5448 46.7636 76.548C46.4994 76.596 46.2482 76.6897 46.0239 76.8238H46.0361Z" fill="#407BFF"/>
<path d="M45.854 76.8897C45.8472 76.8861 45.8415 76.881 45.8377 76.8749C45.8338 76.8687 45.8319 76.8617 45.832 76.8546C45.832 76.8328 45.8467 76.3644 46.0762 76.1675C46.1084 76.1394 46.1467 76.1173 46.1886 76.1027C46.2305 76.088 46.2753 76.081 46.3203 76.0821C46.4448 76.0821 46.4887 76.139 46.4985 76.185C46.5547 76.3776 46.1226 76.7802 45.9004 76.8853C45.8941 76.8875 45.8871 76.8875 45.8809 76.8853L45.854 76.8897ZM46.3008 76.1609C46.2427 76.1632 46.1877 76.1851 46.147 76.2222C46.0155 76.38 45.9414 76.5703 45.9346 76.7671C46.1616 76.6249 46.4424 76.3141 46.4228 76.1981C46.4228 76.1872 46.4228 76.1587 46.3276 76.1566H46.3032L46.3008 76.1609Z" fill="#407BFF"/>
<path d="M45.6653 76.6619L43.5683 76.7976C43.5297 76.7997 43.4931 76.8137 43.4646 76.8372C43.4361 76.8608 43.4176 76.8923 43.4121 76.9267L43.1557 78.4804C43.1499 78.5138 43.1516 78.548 43.1608 78.5808C43.17 78.6136 43.1865 78.6444 43.2093 78.6714C43.2321 78.6983 43.2607 78.7209 43.2935 78.7377C43.3262 78.7545 43.3624 78.7653 43.3999 78.7693C43.4201 78.7716 43.4406 78.7716 43.4609 78.7693C44.2152 78.708 44.8866 78.627 45.8265 78.568C46.9372 78.4957 46.6662 78.6336 47.9748 78.568C48.7608 78.5264 48.8414 77.7145 48.5045 77.6926C46.9616 77.6204 46.7712 77.2155 46.1414 76.7647C46.0028 76.6779 45.8328 76.6412 45.6653 76.6619Z" fill="#263238"/>
<path d="M36.4617 54.2383C36.4617 54.2383 42.0913 54.479 42.3989 56.1772C42.7065 57.8754 40.5191 77.0718 40.5191 77.0718L38.7443 77.0937C38.7443 77.0937 36.535 61.1448 38.1853 58.4925L33.7227 58.3546L36.4617 54.2383Z" fill="#FF8B7B"/>
<g style="mix-blend-mode:multiply" opacity="0.1">
<path d="M41.178 71.0566C41.2781 70.12 41.3831 69.1265 41.488 68.1133C40.1454 68.1133 38.8393 68.1133 37.7969 68.1374C37.875 69.2053 37.9702 70.2623 38.0679 71.258C38.705 71.247 39.828 71.2033 41.178 71.0566Z" fill="black"/>
</g>
<path d="M40.9087 77.0482C40.8996 77.0466 40.8913 77.0427 40.8848 77.0368C40.8783 77.031 40.8738 77.0235 40.8721 77.0154C40.8702 77.0075 40.871 76.9993 40.8745 76.9918C40.878 76.9844 40.884 76.9781 40.8916 76.9738C40.9209 76.9563 41.5825 76.5952 41.9047 76.6652C41.9657 76.6777 42.0189 76.7106 42.0536 76.7572C42.0738 76.7832 42.0846 76.8141 42.0846 76.8458C42.0846 76.8775 42.0738 76.9084 42.0536 76.9344C41.8919 77.0432 41.6913 77.0954 41.4897 77.081C41.2953 77.0849 41.101 77.074 40.9087 77.0482ZM41.0552 76.9891C41.4165 77.0198 41.8998 77.0044 41.9877 76.8885C41.9999 76.8753 42.0097 76.8491 41.9877 76.7987C41.9774 76.7843 41.9638 76.772 41.9478 76.7626C41.9318 76.7531 41.9138 76.7468 41.895 76.744C41.8658 76.7408 41.8363 76.7408 41.8071 76.744C41.5414 76.7824 41.2863 76.8656 41.0552 76.9891Z" fill="#407BFF"/>
<path d="M40.8869 77.0444C40.8803 77.0403 40.875 77.0346 40.8716 77.0281C40.8682 77.0216 40.8667 77.0144 40.8673 77.0072C40.8673 76.9853 40.9039 76.517 41.1432 76.331C41.1762 76.3044 41.2148 76.284 41.2567 76.2709C41.2986 76.2577 41.343 76.2521 41.3873 76.2544C41.5118 76.2544 41.5533 76.3179 41.5606 76.3638C41.607 76.5564 41.1578 76.9437 40.9308 77.0422C40.9245 77.0444 40.9175 77.0444 40.9113 77.0422L40.8869 77.0444ZM41.3751 76.331C41.318 76.3332 41.2636 76.3534 41.2213 76.3879C41.0806 76.54 40.9954 76.7271 40.9772 76.924C41.2213 76.7906 41.5045 76.4864 41.4898 76.3726C41.4898 76.3616 41.4898 76.3332 41.3971 76.3288L41.3751 76.331Z" fill="#407BFF"/>
<path d="M40.7052 76.8105L38.6033 76.8696C38.5649 76.8704 38.528 76.8831 38.4987 76.9054C38.4694 76.9277 38.4494 76.9583 38.4422 76.9921L38.1151 78.5349C38.1076 78.5676 38.1075 78.6012 38.1146 78.6339C38.1218 78.6666 38.1361 78.6977 38.1568 78.7253C38.1775 78.753 38.204 78.7767 38.235 78.7952C38.266 78.8136 38.3007 78.8263 38.3372 78.8325C38.3567 78.8346 38.3764 78.8346 38.3958 78.8325C39.1526 78.7997 39.8264 78.745 40.7687 78.7187C41.8844 78.6903 41.6061 78.8172 42.9146 78.7975C43.7031 78.7844 43.8203 77.9769 43.4858 77.9462C41.9478 77.8171 41.777 77.4057 41.1666 76.9308C41.0344 76.8416 40.8703 76.7988 40.7052 76.8105Z" fill="#263238"/>
<path d="M24.2524 50.6641C24.1293 51.2857 23.948 51.897 23.7105 52.4914C22.9928 54.3362 22.8316 57.3058 24.2817 58.3715C26.5667 60.0435 35.3723 58.133 36.6491 59.3629C37.7135 60.3892 37.1374 70.1144 37.1374 70.1144C40.3037 69.9948 43.4612 69.7297 46.5972 69.32C46.5972 69.32 46.109 66.7815 46.3238 61.9123C46.5386 57.0432 47.0708 54.4325 43.7702 54.0976C40.4697 53.7628 34.5862 52.754 33.8563 51.7473C33.3681 51.0711 33.5951 50.6838 33.5951 50.6838L24.2524 50.6641Z" fill="#263238"/>
<path opacity="0.5" d="M43.8011 69.6579C43.5961 68.7825 43.3446 66.6182 43.701 61.4777C43.9305 58.1689 44.7068 54.6719 41.5039 54.6719C42.0123 54.7641 42.4679 55.0147 42.7901 55.3792C43.1122 55.7436 43.2801 56.1985 43.264 56.6633C43.264 58.1426 42.395 67.2857 42.1508 69.8089C42.6879 69.7651 43.2396 69.7148 43.8011 69.6579Z" fill="black"/>
<path opacity="0.5" d="M33.8124 51.6642C33.3973 51.0405 33.6073 50.6838 33.6073 50.6838L24.2549 50.6641C24.1635 51.1284 24.0379 51.5868 23.8789 52.0362C25.0849 52.1303 27.5823 52.2835 29.1325 52.2069C31.3027 52.1018 34.1297 52.754 34.1297 52.754C34.1297 52.754 33.1288 52.0931 33.8124 51.6642Z" fill="black"/>
<path d="M37.0282 34.0619C37.0282 34.0619 36.4252 35.4034 36.8622 37.4714C37.2137 39.1258 34.0328 38.4409 32.9879 37.4714C31.9431 36.502 36.2421 33.9219 36.2421 33.9219L37.0282 34.0619Z" fill="#263238"/>
<path opacity="0.4" d="M37.0282 34.0619C37.0282 34.0619 36.4252 35.4034 36.8622 37.4714C37.2137 39.1258 34.0328 38.4409 32.9879 37.4714C31.9431 36.502 36.2421 33.9219 36.2421 33.9219L37.0282 34.0619Z" fill="black"/>
<path d="M37.292 48.0329L38.6029 48.3502C38.6029 48.3502 40.3533 47.4748 40.9636 47.593C41.298 47.6608 41.8009 48.1576 42.1671 48.5603C42.2161 48.6172 42.2486 48.6841 42.2618 48.7551C42.275 48.826 42.2686 48.8987 42.243 48.9669C42.2174 49.035 42.1735 49.0964 42.1151 49.1458C42.0568 49.1951 41.9858 49.2307 41.9084 49.2496C41.8285 49.2696 41.7441 49.2696 41.6642 49.2496L40.7659 49.0176C40.7659 49.0176 39.7625 49.4181 39.367 49.44C38.6737 49.4794 36.7695 49.0023 36.7695 49.0023L37.292 48.0329Z" fill="#FF8B7B"/>
<path d="M35.0082 38.5156C35.5672 38.5944 36.6634 39.1349 35.4794 43.5751C35.2938 44.2776 34.9618 45.6125 35.2181 46.2975C35.6795 47.5339 38.1843 48.0875 38.1843 48.0875L37.9011 49.3459C37.9011 49.3459 33.2627 48.453 32.7964 47.0065C32.3399 45.6103 32.5132 38.1698 35.0082 38.5156Z" fill="#407BFF"/>
<path opacity="0.6" d="M35.0082 38.5156C35.5672 38.5944 36.6634 39.1349 35.4794 43.5751C35.2938 44.2776 34.9618 45.6125 35.2181 46.2975C35.6795 47.5339 38.1843 48.0875 38.1843 48.0875L37.9011 49.3459C37.9011 49.3459 33.2627 48.453 32.7964 47.0065C32.3399 45.6103 32.5132 38.1698 35.0082 38.5156Z" fill="white"/>
<path d="M23.9492 51.072C27.1897 51.4621 30.4738 51.4621 33.7142 51.072C33.7142 51.072 33.37 49.2075 34.0389 46.1087C34.1219 45.7301 34.803 43.4827 34.9251 43.1128C36.2434 39.1344 36.9708 38.1255 30.9239 37.7382C25.7264 37.4077 24.9355 38.5741 24.8012 41.3271C24.6669 44.0801 23.9492 51.072 23.9492 51.072Z" fill="#407BFF"/>
<path opacity="0.4" d="M23.9492 51.072C27.1897 51.4621 30.4738 51.4621 33.7142 51.072C33.7142 51.072 33.37 49.2075 34.0389 46.1087C34.1219 45.7301 34.803 43.4827 34.9251 43.1128C36.2434 39.1344 36.9708 38.1255 30.9239 37.7382C25.7264 37.4077 24.9355 38.5741 24.8012 41.3271C24.6669 44.0801 23.9492 51.072 23.9492 51.072Z" fill="white"/>
<path d="M29.3823 47.9268L30.7103 48.4498C30.7103 48.4498 32.4802 47.5591 33.1003 47.6839C33.4958 47.7648 34.2428 48.719 34.2428 48.719C34.2997 48.767 34.3409 48.8281 34.3619 48.8956C34.383 48.9631 34.3831 49.0344 34.3623 49.102C34.3414 49.1695 34.3004 49.2307 34.2436 49.2789C34.1869 49.3271 34.1166 49.3605 34.0402 49.3755C33.9674 49.3929 33.8908 49.3929 33.818 49.3755L32.8952 49.1391C32.8952 49.1391 31.8772 49.544 31.4769 49.5659C30.7762 49.6074 28.8477 48.9247 28.8477 48.9247L29.3823 47.9268Z" fill="#FF8B7B"/>
<path d="M30.1142 37.5587C29.3819 37.7293 28.9546 38.1911 29.2354 39.9484C29.3007 39.867 29.3867 39.8008 29.4863 39.7551C29.5858 39.7094 29.696 39.6856 29.8078 39.6856C29.9197 39.6856 30.0299 39.7094 30.1294 39.7551C30.229 39.8008 30.315 39.867 30.3803 39.9484C30.9711 40.5633 32.0282 41.5721 32.0282 41.5721C32.5498 41.1498 33.0391 40.6965 33.4929 40.2153C34.0544 39.5829 34.3864 40.3182 34.3864 40.3182C34.3864 40.3182 34.8576 38.3487 33.6955 37.911C32.6312 37.5127 31.0004 37.3529 30.1142 37.5587Z" fill="#407BFF"/>
<path opacity="0.6" d="M30.1142 37.5587C29.3819 37.7293 28.9546 38.1911 29.2354 39.9484C29.3007 39.867 29.3867 39.8008 29.4863 39.7551C29.5858 39.7094 29.696 39.6856 29.8078 39.6856C29.9197 39.6856 30.0299 39.7094 30.1294 39.7551C30.229 39.8008 30.315 39.867 30.3803 39.9484C30.9711 40.5633 32.0282 41.5721 32.0282 41.5721C32.5498 41.1498 33.0391 40.6965 33.4929 40.2153C34.0544 39.5829 34.3864 40.3182 34.3864 40.3182C34.3864 40.3182 34.8576 38.3487 33.6955 37.911C32.6312 37.5127 31.0004 37.3529 30.1142 37.5587Z" fill="white"/>
<path opacity="0.1" d="M24.8012 41.3275C24.7256 42.8594 24.4741 45.6845 24.2617 47.8926C34.2708 51.5056 27.9578 47.409 27.9578 47.409C27.9578 47.409 25.9535 46.1835 26.8934 43.2511C27.8333 40.3186 27.5476 38.4848 27.5476 38.4848L27.2278 37.8633C25.2968 38.2966 24.8989 39.4345 24.8012 41.3275Z" fill="black"/>
<path d="M26.7064 38.0321C28.0052 37.9709 28.4153 38.4414 26.5014 42.6824C26.1962 43.3587 25.7031 44.7439 25.9619 45.4376C26.4306 46.6894 30.5514 48.1775 30.5514 48.1775L29.9484 49.4314C29.9484 49.4314 23.069 47.3787 23.2374 45.9103C23.4059 44.4419 24.5752 38.135 26.7064 38.0321Z" fill="#407BFF"/>
<path opacity="0.6" d="M26.7064 38.0321C28.0052 37.9709 28.4153 38.4414 26.5014 42.6824C26.1962 43.3587 25.7031 44.7439 25.9619 45.4376C26.4306 46.6894 30.5514 48.1775 30.5514 48.1775L29.9484 49.4314C29.9484 49.4314 23.069 47.3787 23.2374 45.9103C23.4059 44.4419 24.5752 38.135 26.7064 38.0321Z" fill="white"/>
<path d="M32.1268 41.092C32.1268 41.092 34.7804 39.0503 33.7673 38.2471C33.2571 37.8401 31.6849 37.4724 30.3032 37.7569C29.9712 37.8226 29.6684 38.6979 32.1268 41.092Z" fill="#FF8B7B"/>
<path d="M33.7478 39.0068C33.745 38.7858 33.7155 38.5657 33.6599 38.3503C33.4157 38.2387 32.9934 37.8251 33.4499 37.1773L31.9778 34.8555C31.6995 35.9103 31.4579 37.6084 30.3715 37.9476C30.3715 37.9476 30.0297 38.7464 31.5921 40.4708L33.7478 39.0068Z" fill="#FF8B7B"/>
<path opacity="0.2" d="M31.9761 34.8555C31.8833 35.2078 31.793 35.6323 31.6758 36.0547C31.6945 36.5156 31.8675 36.9608 32.1723 37.3323C32.477 37.7039 32.8995 37.9846 33.3847 38.138C33.2235 37.9345 33.1405 37.6106 33.4432 37.1839L31.9761 34.8555Z" fill="black"/>
<path d="M31.6724 32.8552C31.3526 34.6453 31.1842 35.3937 31.9434 36.4988C33.1005 38.162 35.6224 38.1204 36.5329 36.4551C37.3508 34.9538 37.7389 32.2709 35.9812 31.192C35.596 30.9507 35.1485 30.8016 34.681 30.7589C34.2135 30.7161 33.7416 30.7811 33.31 30.9477C32.8784 31.1143 32.5014 31.377 32.2149 31.7108C31.9283 32.0446 31.7415 32.4385 31.6724 32.8552Z" fill="#FF8B7B"/>
<path d="M34.8669 34.2537C34.818 34.3959 34.8669 34.5338 34.9621 34.5622C35.0573 34.5907 35.1891 34.5009 35.2379 34.3609C35.2868 34.2208 35.2379 34.083 35.1427 34.0523C35.0475 34.0217 34.9206 34.1245 34.8669 34.2537Z" fill="#263238"/>
<path d="M36.6374 34.7591C36.5862 34.9035 36.6374 35.0392 36.7327 35.0677C36.8279 35.0961 36.9597 35.0064 37.0085 34.8663C37.0573 34.7263 37.0085 34.5884 36.9133 34.56C36.8181 34.5315 36.6863 34.6212 36.6374 34.7591Z" fill="#263238"/>
<path d="M36.8594 34.5547H37.2695C37.2695 34.5547 36.9863 34.7735 36.8594 34.5547Z" fill="#263238"/>
<path d="M35.9975 34.8594C36.0249 35.2193 36.107 35.5742 36.2417 35.9142C36.1434 35.9422 36.0394 35.9509 35.937 35.9396C35.8346 35.9282 35.7362 35.8972 35.6484 35.8485L35.9975 34.8594Z" fill="#FF5652"/>
<path d="M34.6049 36.1578C34.677 36.1899 34.7522 36.2163 34.8295 36.2366C34.8352 36.2387 34.8414 36.2398 34.8476 36.2397C34.8539 36.2396 34.86 36.2384 34.8657 36.2362C34.8714 36.2339 34.8765 36.2307 34.8808 36.2266C34.885 36.2226 34.8883 36.2178 34.8905 36.2125C34.8924 36.2069 34.8929 36.2011 34.8922 36.1953C34.8915 36.1894 34.8895 36.1838 34.8863 36.1787C34.8831 36.1736 34.8788 36.1692 34.8737 36.1656C34.8685 36.162 34.8626 36.1593 34.8563 36.1578C34.6603 36.1062 34.4805 36.014 34.3317 35.8885C34.1828 35.763 34.069 35.6079 33.9995 35.4357C33.9946 35.4261 33.986 35.4185 33.9754 35.4141C33.9648 35.4098 33.9527 35.409 33.9415 35.4119C33.9303 35.4148 33.9206 35.4212 33.9142 35.43C33.9078 35.4388 33.9051 35.4493 33.9067 35.4597C33.965 35.6121 34.0569 35.7523 34.1768 35.8722C34.2968 35.9921 34.4423 36.0893 34.6049 36.1578Z" fill="#263238"/>
<path d="M34.267 33.7321C34.285 33.7407 34.3057 33.7439 34.3259 33.7411C34.3462 33.7384 34.3649 33.7298 34.3793 33.7168C34.5029 33.6299 34.6451 33.5668 34.7972 33.5314C34.9493 33.496 35.1078 33.4891 35.263 33.5111C35.2889 33.5149 35.3154 33.5095 35.3368 33.496C35.3583 33.4825 35.373 33.462 35.3777 33.4389C35.3813 33.4166 35.3752 33.394 35.3607 33.3756C35.3461 33.3573 35.3242 33.3447 35.2996 33.3404C35.1132 33.3124 34.9223 33.3208 34.7399 33.365C34.5575 33.4092 34.3878 33.4881 34.2425 33.5965C34.2248 33.6124 34.2148 33.6341 34.2148 33.6566C34.2148 33.6792 34.2248 33.7008 34.2425 33.7168C34.2483 33.7245 34.257 33.7299 34.267 33.7321Z" fill="#263238"/>
<path d="M37.4238 34.1781C37.4387 34.1856 37.4555 34.1895 37.4726 34.1895C37.4897 34.1895 37.5065 34.1856 37.5215 34.1781C37.5324 34.1721 37.5419 34.1642 37.5493 34.1548C37.5568 34.1454 37.562 34.1348 37.5647 34.1236C37.5675 34.1123 37.5677 34.1007 37.5653 34.0894C37.5628 34.0781 37.5579 34.0673 37.5508 34.0578C37.4709 33.9384 37.3593 33.8386 37.226 33.7672C37.0927 33.6958 36.9418 33.655 36.7866 33.6486C36.7746 33.648 36.7625 33.6496 36.7511 33.6532C36.7398 33.6569 36.7293 33.6626 36.7205 33.6699C36.7116 33.6773 36.7044 33.6861 36.6995 33.696C36.6945 33.7059 36.6917 33.7165 36.6914 33.7273C36.6911 33.7386 36.6933 33.7499 36.698 33.7604C36.7027 33.7708 36.7097 33.7804 36.7186 33.7884C36.7275 33.7963 36.7381 33.8026 36.7498 33.8068C36.7615 33.811 36.7741 33.813 36.7866 33.8127C36.9073 33.822 37.0238 33.8565 37.1268 33.9135C37.2299 33.9706 37.3165 34.0484 37.3799 34.1409C37.3898 34.1572 37.4051 34.1702 37.4238 34.1781Z" fill="#263238"/>
<path d="M35.0859 34.0586H35.4961C35.4961 34.0586 35.2153 34.2687 35.0859 34.0586Z" fill="#263238"/>
<path d="M31.4878 33.6658C31.4878 33.6658 32.6011 34.9548 33.1967 33.8015C33.7924 32.6482 36.092 32.1952 35.6526 31.5256C36.2611 31.8774 36.7862 32.3332 37.1979 32.8671C37.2118 32.8882 37.2333 32.9045 37.2589 32.9132C37.2845 32.9219 37.3126 32.9224 37.3386 32.9147C37.3646 32.907 37.3869 32.8916 37.4017 32.871C37.4165 32.8504 37.423 32.8258 37.4201 32.8014C37.359 32.0289 37.0197 30.5058 35.2962 30.5649C35.2962 30.5649 33.4921 29.3613 31.9492 30.3198C30.4747 31.2302 31.4878 33.6658 31.4878 33.6658Z" fill="#263238"/>
<path d="M34.7966 30.5251C34.7966 30.5251 32.1454 28.9342 30.4389 31.8907C28.7325 34.8472 26.2497 35.4818 27.7535 37.2369C29.2574 38.992 32.0257 38.5981 32.0404 37.6527C32.055 36.7073 31.3617 35.8867 31.8109 34.6021C32.2601 33.3175 34.7966 30.5251 34.7966 30.5251Z" fill="#263238"/>
<path d="M30.7981 34.1046C30.8187 34.2751 30.8768 34.4402 30.9689 34.5904C31.0611 34.7407 31.1856 34.8731 31.3352 34.9799C31.738 35.2579 32.1311 34.9799 32.1823 34.5423C32.2238 34.1527 32.0676 33.5378 31.5891 33.4218C31.4823 33.3993 31.371 33.4012 31.2652 33.4274C31.1595 33.4536 31.0628 33.5032 30.9841 33.5716C30.9053 33.64 30.847 33.7251 30.8145 33.819C30.782 33.9129 30.7764 34.0126 30.7981 34.109V34.1046Z" fill="#FF8B7B"/>
<path d="M55.9733 77.6242L51.1835 76.4447L50.583 50.4336H48.8741L48.2858 76.4447L43.496 77.6242C43.2147 77.6953 42.967 77.8469 42.7907 78.0559C42.6145 78.2649 42.5192 78.5198 42.5195 78.7819H56.9644C56.9638 78.5181 56.8665 78.2619 56.6874 78.0527C56.5082 77.8435 56.2573 77.6929 55.9733 77.6242Z" fill="#263238"/>
<path opacity="0.5" d="M55.9733 77.6242L51.1835 76.4447L50.583 50.4336H48.8741L48.2858 76.4447L43.496 77.6242C43.2147 77.6953 42.967 77.8469 42.7907 78.0559C42.6145 78.2649 42.5192 78.5198 42.5195 78.7819H56.9644C56.9638 78.5181 56.8665 78.2619 56.6874 78.0527C56.5082 77.8435 56.2573 77.6929 55.9733 77.6242Z" fill="white"/>
<path opacity="0.2" d="M47.7773 78.7829V78.0913C47.7771 77.9869 47.8055 77.884 47.86 77.7917C47.9144 77.6993 47.9933 77.6204 48.0897 77.5617L49.7351 76.5551V51.4609H49.2469V76.5551L46.8398 77.5771C46.7172 77.6289 46.6135 77.711 46.5409 77.8137C46.4682 77.9163 46.4297 78.0354 46.4297 78.157V78.7829H47.7773Z" fill="white"/>
<path d="M70.0318 51.0195H33.2617V51.908H70.0318V51.0195Z" fill="#263238"/>
<path opacity="0.3" d="M70.0318 51.0195H33.2617V51.908H70.0318V51.0195Z" fill="white"/>
<path opacity="0.2" d="M70.0291 51.0195H51.6953V51.908H70.0291V51.0195Z" fill="black"/>
<path d="M72.2488 50.1289H31.043V51.0174H72.2488V50.1289Z" fill="#263238"/>
<path opacity="0.3" d="M72.25 50.1289H49.4805V51.0174H72.25V50.1289Z" fill="black"/>
<path d="M80.602 44.931V39.1318V38.0595C80.6007 37.3396 80.2811 36.6495 79.7132 36.1405C79.1453 35.6314 78.3755 35.3449 77.5724 35.3438H59.4217C58.619 35.3455 57.8498 35.6322 57.2824 36.1412C56.7151 36.6502 56.3958 37.34 56.3945 38.0595V47.2857H57.1928V38.0595C57.1935 37.5292 57.4288 37.0208 57.8471 36.6458C58.2654 36.2708 58.8325 36.0599 59.4241 36.0594H77.5724C78.164 36.0599 78.7311 36.2708 79.1494 36.6458C79.5677 37.0208 79.803 37.5292 79.8037 38.0595V44.931H78.854L80.2016 46.9006L81.5492 44.931H80.602Z" fill="#407BFF"/>
<path d="M97.8814 47.1758H45.7461V47.8914H97.8814V47.1758Z" fill="#407BFF"/>
<path d="M59.4146 51.0805H53.2382C53.0673 51.0805 52.9034 51.0196 52.7825 50.9113C52.6617 50.8029 52.5938 50.656 52.5938 50.5028V42.6246C52.5938 42.4714 52.6617 42.3244 52.7825 42.2161C52.9034 42.1077 53.0673 42.0469 53.2382 42.0469H60.3716C60.5425 42.0469 60.7064 42.1077 60.8273 42.2161C60.9482 42.3244 61.0161 42.4714 61.0161 42.6246V50.5028C61.0161 50.656 60.9482 50.8029 60.8273 50.9113C60.7064 51.0196 60.5425 51.0805 60.3716 51.0805H59.4146Z" fill="#407BFF"/>
<path opacity="0.8" d="M59.4146 51.0805H53.2382C53.0673 51.0805 52.9034 51.0196 52.7825 50.9113C52.6617 50.8029 52.5938 50.656 52.5938 50.5028V42.6246C52.5938 42.4714 52.6617 42.3244 52.7825 42.2161C52.9034 42.1077 53.0673 42.0469 53.2382 42.0469H60.3716C60.5425 42.0469 60.7064 42.1077 60.8273 42.2161C60.9482 42.3244 61.0161 42.4714 61.0161 42.6246V50.5028C61.0161 50.656 60.9482 50.8029 60.8273 50.9113C60.7064 51.0196 60.5425 51.0805 60.3716 51.0805H59.4146Z" fill="white"/>
<path d="M60.3716 42.0508H53.2382C53.0673 42.0508 52.9034 42.1116 52.7825 42.22C52.6617 42.3283 52.5938 42.4753 52.5938 42.6285V43.4776H61.0161V42.6285C61.0161 42.4753 60.9482 42.3283 60.8273 42.22C60.7064 42.1116 60.5425 42.0508 60.3716 42.0508Z" fill="#263238"/>
<path d="M60.0576 43.04C60.2059 43.04 60.3261 42.9323 60.3261 42.7993C60.3261 42.6664 60.2059 42.5586 60.0576 42.5586C59.9093 42.5586 59.7891 42.6664 59.7891 42.7993C59.7891 42.9323 59.9093 43.04 60.0576 43.04Z" fill="#407BFF"/>
<path d="M58.9873 43.04C59.1356 43.04 59.2558 42.9323 59.2558 42.7993C59.2558 42.6664 59.1356 42.5586 58.9873 42.5586C58.839 42.5586 58.7188 42.6664 58.7188 42.7993C58.7188 42.9323 58.839 43.04 58.9873 43.04Z" fill="#407BFF"/>
<path d="M57.917 43.04C58.0653 43.04 58.1855 42.9323 58.1855 42.7993C58.1855 42.6664 58.0653 42.5586 57.917 42.5586C57.7687 42.5586 57.6484 42.6664 57.6484 42.7993C57.6484 42.9323 57.7687 43.04 57.917 43.04Z" fill="#407BFF"/>
<path d="M56.0741 44.9279L55.1318 45.2387L56.0741 45.5451V45.8624L54.7266 45.4028V45.0789L56.0741 44.6172V44.9279Z" fill="#263238"/>
<path d="M57.0883 43.9844H57.4814L56.5464 46.3916H56.1484L57.0883 43.9844Z" fill="#263238"/>
<path d="M58.8827 45.0789V45.4072L57.5352 45.8668V45.5494L58.4775 45.2431L57.5352 44.9323V44.6172L58.8827 45.0789Z" fill="#263238"/>
<path d="M55.0404 47.1992H53.5366C53.4301 47.1992 53.3438 47.2766 53.3438 47.3721V47.4027C53.3438 47.4982 53.4301 47.5756 53.5366 47.5756H55.0404C55.1469 47.5756 55.2333 47.4982 55.2333 47.4027V47.3721C55.2333 47.2766 55.1469 47.1992 55.0404 47.1992Z" fill="#263238"/>
<path d="M57.7733 47.1992H55.7983C55.6918 47.1992 55.6055 47.2766 55.6055 47.3721V47.4027C55.6055 47.4982 55.6918 47.5756 55.7983 47.5756H57.7733C57.8798 47.5756 57.9662 47.4982 57.9662 47.4027V47.3721C57.9662 47.2766 57.8798 47.1992 57.7733 47.1992Z" fill="#263238"/>
<path d="M60.0722 47.1992H58.5366C58.4301 47.1992 58.3438 47.2766 58.3438 47.3721V47.4027C58.3438 47.4982 58.4301 47.5756 58.5366 47.5756H60.0722C60.1787 47.5756 60.265 47.4982 60.265 47.4027V47.3721C60.265 47.2766 60.1787 47.1992 60.0722 47.1992Z" fill="#263238"/>
<path d="M55.1967 48.1328H53.5366C53.4301 48.1328 53.3438 48.2102 53.3438 48.3057V48.3363C53.3438 48.4318 53.4301 48.5092 53.5366 48.5092H55.1967C55.3032 48.5092 55.3895 48.4318 55.3895 48.3363V48.3057C55.3895 48.2102 55.3032 48.1328 55.1967 48.1328Z" fill="#263238"/>
<path d="M58.0921 48.1328H55.9585C55.852 48.1328 55.7656 48.2102 55.7656 48.3057V48.3363C55.7656 48.4318 55.852 48.5092 55.9585 48.5092H58.0921C58.1986 48.5092 58.285 48.4318 58.285 48.3363V48.3057C58.285 48.2102 58.1986 48.1328 58.0921 48.1328Z" fill="#263238"/>
<path d="M60.0736 48.1328H58.853C58.7465 48.1328 58.6602 48.2102 58.6602 48.3057V48.3363C58.6602 48.4318 58.7465 48.5092 58.853 48.5092H60.0736C60.1802 48.5092 60.2665 48.4318 60.2665 48.3363V48.3057C60.2665 48.2102 60.1802 48.1328 60.0736 48.1328Z" fill="#263238"/>
<path d="M54.8817 49.0703H53.5366C53.4301 49.0703 53.3438 49.1477 53.3438 49.2432V49.2738C53.3438 49.3693 53.4301 49.4467 53.5366 49.4467H54.8817C54.9883 49.4467 55.0746 49.3693 55.0746 49.2738V49.2432C55.0746 49.1477 54.9883 49.0703 54.8817 49.0703Z" fill="#263238"/>
<path d="M57.617 49.0703H55.6421C55.5356 49.0703 55.4492 49.1477 55.4492 49.2432V49.2738C55.4492 49.3693 55.5356 49.4467 55.6421 49.4467H57.617C57.7236 49.4467 57.8099 49.3693 57.8099 49.2738V49.2432C57.8099 49.1477 57.7236 49.0703 57.617 49.0703Z" fill="#263238"/>
<path d="M60.0707 49.0703H58.3765C58.2699 49.0703 58.1836 49.1477 58.1836 49.2432V49.2738C58.1836 49.3693 58.2699 49.4467 58.3765 49.4467H60.0707C60.1772 49.4467 60.2635 49.3693 60.2635 49.2738V49.2432C60.2635 49.1477 60.1772 49.0703 60.0707 49.0703Z" fill="#263238"/>
<path d="M55.5116 50.0039H53.5366C53.4301 50.0039 53.3438 50.0813 53.3438 50.1768V50.2074C53.3438 50.3029 53.4301 50.3803 53.5366 50.3803H55.5116C55.6181 50.3803 55.7044 50.3029 55.7044 50.2074V50.1768C55.7044 50.0813 55.6181 50.0039 55.5116 50.0039Z" fill="#263238"/>
<path d="M58.0897 50.0039H56.271C56.1645 50.0039 56.0781 50.0813 56.0781 50.1768V50.2074C56.0781 50.3029 56.1645 50.3803 56.271 50.3803H58.0897C58.1962 50.3803 58.2826 50.3029 58.2826 50.2074V50.1768C58.2826 50.0813 58.1962 50.0039 58.0897 50.0039Z" fill="#263238"/>
<path d="M60.0736 50.0039H58.853C58.7465 50.0039 58.6602 50.0813 58.6602 50.1768V50.2074C58.6602 50.3029 58.7465 50.3803 58.853 50.3803H60.0736C60.1802 50.3803 60.2665 50.3029 60.2665 50.2074V50.1768C60.2665 50.0813 60.1802 50.0039 60.0736 50.0039Z" fill="#263238"/>
<path d="M82.8716 39.5805H76.6953C76.5243 39.5805 76.3604 39.5196 76.2396 39.4113C76.1187 39.3029 76.0508 39.156 76.0508 39.0028V31.1246C76.0508 30.9714 76.1187 30.8244 76.2396 30.7161C76.3604 30.6077 76.5243 30.5469 76.6953 30.5469H83.8286C83.9995 30.5469 84.1635 30.6077 84.2843 30.7161C84.4052 30.8244 84.4731 30.9714 84.4731 31.1246V39.0028C84.4731 39.156 84.4052 39.3029 84.2843 39.4113C84.1635 39.5196 83.9995 39.5805 83.8286 39.5805H82.8716Z" fill="#407BFF"/>
<path opacity="0.8" d="M82.8716 39.5805H76.6953C76.5243 39.5805 76.3604 39.5196 76.2396 39.4113C76.1187 39.3029 76.0508 39.156 76.0508 39.0028V31.1246C76.0508 30.9714 76.1187 30.8244 76.2396 30.7161C76.3604 30.6077 76.5243 30.5469 76.6953 30.5469H83.8286C83.9995 30.5469 84.1635 30.6077 84.2843 30.7161C84.4052 30.8244 84.4731 30.9714 84.4731 31.1246V39.0028C84.4731 39.156 84.4052 39.3029 84.2843 39.4113C84.1635 39.5196 83.9995 39.5805 83.8286 39.5805H82.8716Z" fill="white"/>
<path d="M83.8286 30.5508H76.6953C76.5243 30.5508 76.3604 30.6116 76.2396 30.72C76.1187 30.8283 76.0508 30.9753 76.0508 31.1285V31.9798H84.4682V31.1285C84.4682 30.976 84.401 30.8298 84.2812 30.7215C84.1614 30.6133 83.9987 30.5519 83.8286 30.5508Z" fill="#263238"/>
<path d="M83.5185 31.5439C83.6668 31.5439 83.7871 31.4362 83.7871 31.3032C83.7871 31.1703 83.6668 31.0625 83.5185 31.0625C83.3702 31.0625 83.25 31.1703 83.25 31.3032C83.25 31.4362 83.3702 31.5439 83.5185 31.5439Z" fill="#407BFF"/>
<path d="M82.4482 31.5439C82.5965 31.5439 82.7168 31.4362 82.7168 31.3032C82.7168 31.1703 82.5965 31.0625 82.4482 31.0625C82.2999 31.0625 82.1797 31.1703 82.1797 31.3032C82.1797 31.4362 82.2999 31.5439 82.4482 31.5439Z" fill="#407BFF"/>
<path d="M81.374 31.5439C81.5223 31.5439 81.6425 31.4362 81.6425 31.3032C81.6425 31.1703 81.5223 31.0625 81.374 31.0625C81.2257 31.0625 81.1055 31.1703 81.1055 31.3032C81.1055 31.4362 81.2257 31.5439 81.374 31.5439Z" fill="#407BFF"/>
<path d="M79.5336 33.4294L78.5888 33.7379L79.5336 34.0465V34.355L78.1836 33.8955V33.565L79.5336 33.1055V33.4294Z" fill="#263238"/>
<path d="M80.5483 32.4883H80.9413L80.0063 34.8824H79.6133L80.5483 32.4883Z" fill="#263238"/>
<path d="M82.3422 33.5728V33.9033L80.9922 34.3628V34.0455L81.9369 33.737L80.9922 33.4284V33.1133L82.3422 33.5728Z" fill="#263238"/>
<path d="M78.5014 35.6992H76.9975C76.891 35.6992 76.8047 35.7766 76.8047 35.8721V35.9027C76.8047 35.9982 76.891 36.0756 76.9975 36.0756H78.5014C78.6079 36.0756 78.6942 35.9982 78.6942 35.9027V35.8721C78.6942 35.7766 78.6079 35.6992 78.5014 35.6992Z" fill="#263238"/>
<path d="M81.2342 35.6992H79.2593C79.1528 35.6992 79.0664 35.7766 79.0664 35.8721V35.9027C79.0664 35.9982 79.1528 36.0756 79.2593 36.0756H81.2342C81.3408 36.0756 81.4271 35.9982 81.4271 35.9027V35.8721C81.4271 35.7766 81.3408 35.6992 81.2342 35.6992Z" fill="#263238"/>
<path d="M83.5292 35.6992H81.9936C81.8871 35.6992 81.8008 35.7766 81.8008 35.8721V35.9027C81.8008 35.9982 81.8871 36.0756 81.9936 36.0756H83.5292C83.6357 36.0756 83.722 35.9982 83.722 35.9027V35.8721C83.722 35.7766 83.6357 35.6992 83.5292 35.6992Z" fill="#263238"/>
<path d="M78.6576 36.6367H76.9975C76.891 36.6367 76.8047 36.7141 76.8047 36.8096V36.8402C76.8047 36.9357 76.891 37.0131 76.9975 37.0131H78.6576C78.7641 37.0131 78.8505 36.9357 78.8505 36.8402V36.8096C78.8505 36.7141 78.7641 36.6367 78.6576 36.6367Z" fill="#263238"/>
<path d="M81.5492 36.6367H79.4155C79.309 36.6367 79.2227 36.7141 79.2227 36.8096V36.8402C79.2227 36.9357 79.309 37.0131 79.4155 37.0131H81.5492C81.6557 37.0131 81.742 36.9357 81.742 36.8402V36.8096C81.742 36.7141 81.6557 36.6367 81.5492 36.6367Z" fill="#263238"/>
<path d="M83.5307 36.6367H82.31C82.2035 36.6367 82.1172 36.7141 82.1172 36.8096V36.8402C82.1172 36.9357 82.2035 37.0131 82.31 37.0131H83.5307C83.6372 37.0131 83.7235 36.9357 83.7235 36.8402V36.8096C83.7235 36.7141 83.6372 36.6367 83.5307 36.6367Z" fill="#263238"/>
<path d="M78.3427 37.5703H76.9975C76.891 37.5703 76.8047 37.6477 76.8047 37.7432V37.7738C76.8047 37.8693 76.891 37.9467 76.9975 37.9467H78.3427C78.4492 37.9467 78.5355 37.8693 78.5355 37.7738V37.7432C78.5355 37.6477 78.4492 37.5703 78.3427 37.5703Z" fill="#263238"/>
<path d="M81.078 37.5703H79.103C78.9965 37.5703 78.9102 37.6477 78.9102 37.7432V37.7738C78.9102 37.8693 78.9965 37.9467 79.103 37.9467H81.078C81.1845 37.9467 81.2708 37.8693 81.2708 37.7738V37.7432C81.2708 37.6477 81.1845 37.5703 81.078 37.5703Z" fill="#263238"/>
<path d="M83.5277 37.5703H81.8335C81.727 37.5703 81.6406 37.6477 81.6406 37.7432V37.7738C81.6406 37.8693 81.727 37.9467 81.8335 37.9467H83.5277C83.6342 37.9467 83.7206 37.8693 83.7206 37.7738V37.7432C83.7206 37.6477 83.6342 37.5703 83.5277 37.5703Z" fill="#263238"/>
<path d="M78.9725 38.5039H76.9975C76.891 38.5039 76.8047 38.5813 76.8047 38.6768V38.7074C76.8047 38.8029 76.891 38.8803 76.9975 38.8803H78.9725C79.079 38.8803 79.1654 38.8029 79.1654 38.7074V38.6768C79.1654 38.5813 79.079 38.5039 78.9725 38.5039Z" fill="#263238"/>
<path d="M81.5507 38.5039H79.7319C79.6254 38.5039 79.5391 38.5813 79.5391 38.6768V38.7074C79.5391 38.8029 79.6254 38.8803 79.7319 38.8803H81.5507C81.6572 38.8803 81.7435 38.8029 81.7435 38.7074V38.6768C81.7435 38.5813 81.6572 38.5039 81.5507 38.5039Z" fill="#263238"/>
<path d="M83.5307 38.5039H82.31C82.2035 38.5039 82.1172 38.5813 82.1172 38.6768V38.7074C82.1172 38.8029 82.2035 38.8803 82.31 38.8803H83.5307C83.6372 38.8803 83.7235 38.8029 83.7235 38.7074V38.6768C83.7235 38.5813 83.6372 38.5039 83.5307 38.5039Z" fill="#263238"/>
<path d="M99.7623 51.0805H93.5859C93.415 51.0805 93.251 51.0196 93.1302 50.9113C93.0093 50.8029 92.9414 50.656 92.9414 50.5028V42.6246C92.9414 42.4714 93.0093 42.3244 93.1302 42.2161C93.251 42.1077 93.415 42.0469 93.5859 42.0469H100.719C100.89 42.0469 101.054 42.1077 101.175 42.2161C101.296 42.3244 101.364 42.4714 101.364 42.6246V50.5028C101.364 50.656 101.296 50.8029 101.175 50.9113C101.054 51.0196 100.89 51.0805 100.719 51.0805H99.7623Z" fill="#407BFF"/>
<path opacity="0.8" d="M99.7623 51.0805H93.5859C93.415 51.0805 93.251 51.0196 93.1302 50.9113C93.0093 50.8029 92.9414 50.656 92.9414 50.5028V42.6246C92.9414 42.4714 93.0093 42.3244 93.1302 42.2161C93.251 42.1077 93.415 42.0469 93.5859 42.0469H100.719C100.89 42.0469 101.054 42.1077 101.175 42.2161C101.296 42.3244 101.364 42.4714 101.364 42.6246V50.5028C101.364 50.656 101.296 50.8029 101.175 50.9113C101.054 51.0196 100.89 51.0805 100.719 51.0805H99.7623Z" fill="white"/>
<path d="M100.719 42.0508H93.5859C93.415 42.0508 93.251 42.1116 93.1302 42.22C93.0093 42.3283 92.9414 42.4753 92.9414 42.6285V43.4776H101.364V42.6285C101.364 42.4753 101.296 42.3283 101.175 42.22C101.054 42.1116 100.89 42.0508 100.719 42.0508Z" fill="#263238"/>
<path d="M100.405 43.04C100.554 43.04 100.674 42.9323 100.674 42.7993C100.674 42.6664 100.554 42.5586 100.405 42.5586C100.257 42.5586 100.137 42.6664 100.137 42.7993C100.137 42.9323 100.257 43.04 100.405 43.04Z" fill="#407BFF"/>
<path d="M99.3349 43.04C99.4833 43.04 99.6035 42.9323 99.6035 42.7993C99.6035 42.6664 99.4833 42.5586 99.3349 42.5586C99.1866 42.5586 99.0664 42.6664 99.0664 42.7993C99.0664 42.9323 99.1866 43.04 99.3349 43.04Z" fill="#407BFF"/>
<path d="M98.2646 43.04C98.4129 43.04 98.5332 42.9323 98.5332 42.7993C98.5332 42.6664 98.4129 42.5586 98.2646 42.5586C98.1163 42.5586 97.9961 42.6664 97.9961 42.7993C97.9961 42.9323 98.1163 43.04 98.2646 43.04Z" fill="#407BFF"/>
<path d="M96.432 44.9279L95.4873 45.2387L96.432 45.5451V45.8624L95.082 45.4028V45.0789L96.432 44.6172V44.9279Z" fill="#263238"/>
<path d="M97.4389 43.9844H97.8344L96.8994 46.3916H96.5039L97.4389 43.9844Z" fill="#263238"/>
<path d="M99.2304 45.0794V45.4077L97.8828 45.8672V45.5499L98.8251 45.2435L97.895 44.9284V44.6133L99.2304 45.0794Z" fill="#263238"/>
<path d="M95.3881 47.1992H93.8843C93.7778 47.1992 93.6914 47.2766 93.6914 47.3721V47.4027C93.6914 47.4982 93.7778 47.5756 93.8843 47.5756H95.3881C95.4946 47.5756 95.5809 47.4982 95.5809 47.4027V47.3721C95.5809 47.2766 95.4946 47.1992 95.3881 47.1992Z" fill="#263238"/>
<path d="M98.121 47.1992H96.146C96.0395 47.1992 95.9531 47.2766 95.9531 47.3721V47.4027C95.9531 47.4982 96.0395 47.5756 96.146 47.5756H98.121C98.2275 47.5756 98.3138 47.4982 98.3138 47.4027V47.3721C98.3138 47.2766 98.2275 47.1992 98.121 47.1992Z" fill="#263238"/>
<path d="M100.42 47.1992H98.8843C98.7778 47.1992 98.6914 47.2766 98.6914 47.3721V47.4027C98.6914 47.4982 98.7778 47.5756 98.8843 47.5756H100.42C100.526 47.5756 100.613 47.4982 100.613 47.4027V47.3721C100.613 47.2766 100.526 47.1992 100.42 47.1992Z" fill="#263238"/>
<path d="M95.5443 48.1328H93.8843C93.7778 48.1328 93.6914 48.2102 93.6914 48.3057V48.3363C93.6914 48.4318 93.7778 48.5092 93.8843 48.5092H95.5443C95.6508 48.5092 95.7372 48.4318 95.7372 48.3363V48.3057C95.7372 48.2102 95.6508 48.1328 95.5443 48.1328Z" fill="#263238"/>
<path d="M98.4359 48.1328H96.3022C96.1957 48.1328 96.1094 48.2102 96.1094 48.3057V48.3363C96.1094 48.4318 96.1957 48.5092 96.3022 48.5092H98.4359C98.5424 48.5092 98.6287 48.4318 98.6287 48.3363V48.3057C98.6287 48.2102 98.5424 48.1328 98.4359 48.1328Z" fill="#263238"/>
<path d="M100.417 48.1328H99.1968C99.0902 48.1328 99.0039 48.2102 99.0039 48.3057V48.3363C99.0039 48.4318 99.0902 48.5092 99.1968 48.5092H100.417C100.524 48.5092 100.61 48.4318 100.61 48.3363V48.3057C100.61 48.2102 100.524 48.1328 100.417 48.1328Z" fill="#263238"/>
<path d="M95.2294 49.0703H93.8843C93.7778 49.0703 93.6914 49.1477 93.6914 49.2432V49.2738C93.6914 49.3693 93.7778 49.4467 93.8843 49.4467H95.2294C95.3359 49.4467 95.4223 49.3693 95.4223 49.2738V49.2432C95.4223 49.1477 95.3359 49.0703 95.2294 49.0703Z" fill="#263238"/>
<path d="M97.9647 49.0703H95.9897C95.8832 49.0703 95.7969 49.1477 95.7969 49.2432V49.2738C95.7969 49.3693 95.8832 49.4467 95.9897 49.4467H97.9647C98.0712 49.4467 98.1576 49.3693 98.1576 49.2738V49.2432C98.1576 49.1477 98.0712 49.0703 97.9647 49.0703Z" fill="#263238"/>
<path d="M100.422 49.0703H98.728C98.6215 49.0703 98.5352 49.1477 98.5352 49.2432V49.2738C98.5352 49.3693 98.6215 49.4467 98.728 49.4467H100.422C100.529 49.4467 100.615 49.3693 100.615 49.2738V49.2432C100.615 49.1477 100.529 49.0703 100.422 49.0703Z" fill="#263238"/>
<path d="M95.8592 50.0039H93.8843C93.7778 50.0039 93.6914 50.0813 93.6914 50.1768V50.2074C93.6914 50.3029 93.7778 50.3803 93.8843 50.3803H95.8592C95.9658 50.3803 96.0521 50.3029 96.0521 50.2074V50.1768C96.0521 50.0813 95.9658 50.0039 95.8592 50.0039Z" fill="#263238"/>
<path d="M98.4374 50.0039H96.6186C96.5121 50.0039 96.4258 50.0813 96.4258 50.1768V50.2074C96.4258 50.3029 96.5121 50.3803 96.6186 50.3803H98.4374C98.5439 50.3803 98.6302 50.3029 98.6302 50.2074V50.1768C98.6302 50.0813 98.5439 50.0039 98.4374 50.0039Z" fill="#263238"/>
<path d="M100.417 50.0039H99.1968C99.0902 50.0039 99.0039 50.0813 99.0039 50.1768V50.2074C99.0039 50.3029 99.0902 50.3803 99.1968 50.3803H100.417C100.524 50.3803 100.61 50.3029 100.61 50.2074V50.1768C100.61 50.0813 100.524 50.0039 100.417 50.0039Z" fill="#263238"/>
<path d="M72.3521 51.0805H66.1757C66.0048 51.0805 65.8409 51.0196 65.72 50.9113C65.5992 50.8029 65.5312 50.656 65.5312 50.5028V42.6246C65.5312 42.4714 65.5992 42.3244 65.72 42.2161C65.8409 42.1077 66.0048 42.0469 66.1757 42.0469H73.3091C73.48 42.0469 73.6439 42.1077 73.7648 42.2161C73.8857 42.3244 73.9536 42.4714 73.9536 42.6246V50.5028C73.9536 50.656 73.8857 50.8029 73.7648 50.9113C73.6439 51.0196 73.48 51.0805 73.3091 51.0805H72.3521Z" fill="#407BFF"/>
<path opacity="0.8" d="M72.3521 51.0805H66.1757C66.0048 51.0805 65.8409 51.0196 65.72 50.9113C65.5992 50.8029 65.5312 50.656 65.5312 50.5028V42.6246C65.5312 42.4714 65.5992 42.3244 65.72 42.2161C65.8409 42.1077 66.0048 42.0469 66.1757 42.0469H73.3091C73.48 42.0469 73.6439 42.1077 73.7648 42.2161C73.8857 42.3244 73.9536 42.4714 73.9536 42.6246V50.5028C73.9536 50.656 73.8857 50.8029 73.7648 50.9113C73.6439 51.0196 73.48 51.0805 73.3091 51.0805H72.3521Z" fill="white"/>
<path d="M73.3091 42.0508H66.1757C66.0048 42.0508 65.8409 42.1116 65.72 42.22C65.5992 42.3283 65.5312 42.4753 65.5312 42.6285V43.4776H73.9536V42.6285C73.9536 42.4753 73.8857 42.3283 73.7648 42.22C73.6439 42.1116 73.48 42.0508 73.3091 42.0508Z" fill="#263238"/>
<path d="M72.999 43.04C73.1473 43.04 73.2675 42.9323 73.2675 42.7993C73.2675 42.6664 73.1473 42.5586 72.999 42.5586C72.8507 42.5586 72.7305 42.6664 72.7305 42.7993C72.7305 42.9323 72.8507 43.04 72.999 43.04Z" fill="#407BFF"/>
<path d="M71.9287 43.04C72.077 43.04 72.1972 42.9323 72.1972 42.7993C72.1972 42.6664 72.077 42.5586 71.9287 42.5586C71.7804 42.5586 71.6602 42.6664 71.6602 42.7993C71.6602 42.9323 71.7804 43.04 71.9287 43.04Z" fill="#407BFF"/>
<path d="M70.8545 43.04C71.0028 43.04 71.123 42.9323 71.123 42.7993C71.123 42.6664 71.0028 42.5586 70.8545 42.5586C70.7062 42.5586 70.5859 42.6664 70.5859 42.7993C70.5859 42.9323 70.7062 43.04 70.8545 43.04Z" fill="#407BFF"/>
<path d="M69.018 44.9279L68.0732 45.2387L69.018 45.5451V45.8624L67.668 45.4028V45.0789L69.018 44.6172V44.9279Z" fill="#263238"/>
<path d="M70.0297 43.9844H70.4252L69.4902 46.3916H69.0898L70.0297 43.9844Z" fill="#263238"/>
<path d="M71.8241 45.0789V45.4072L70.4766 45.8668V45.5494L71.4189 45.2431L70.4766 44.9323V44.6172L71.8241 45.0789Z" fill="#263238"/>
<path d="M68.453 47.1992H66.478C66.3715 47.1992 66.2852 47.2766 66.2852 47.3721V47.4027C66.2852 47.4982 66.3715 47.5756 66.478 47.5756H68.453C68.5595 47.5756 68.6458 47.4982 68.6458 47.4027V47.3721C68.6458 47.2766 68.5595 47.1992 68.453 47.1992Z" fill="#263238"/>
<path d="M71.1874 47.1992H69.2124C69.1059 47.1992 69.0195 47.2766 69.0195 47.3721V47.4027C69.0195 47.4982 69.1059 47.5756 69.2124 47.5756H71.1874C71.2939 47.5756 71.3802 47.4982 71.3802 47.4027V47.3721C71.3802 47.2766 71.2939 47.1992 71.1874 47.1992Z" fill="#263238"/>
<path d="M73.0111 47.1992H71.9468C71.8402 47.1992 71.7539 47.2766 71.7539 47.3721V47.4027C71.7539 47.4982 71.8402 47.5756 71.9468 47.5756H73.0111C73.1177 47.5756 73.204 47.4982 73.204 47.4027V47.3721C73.204 47.2766 73.1177 47.1992 73.0111 47.1992Z" fill="#263238"/>
<path d="M67.9818 48.1328H66.478C66.3715 48.1328 66.2852 48.2102 66.2852 48.3057V48.3363C66.2852 48.4318 66.3715 48.5092 66.478 48.5092H67.9818C68.0883 48.5092 68.1747 48.4318 68.1747 48.3363V48.3057C68.1747 48.2102 68.0883 48.1328 67.9818 48.1328Z" fill="#263238"/>
<path d="M70.8734 48.1328H68.7397C68.6332 48.1328 68.5469 48.2102 68.5469 48.3057V48.3363C68.5469 48.4318 68.6332 48.5092 68.7397 48.5092H70.8734C70.9799 48.5092 71.0662 48.4318 71.0662 48.3363V48.3057C71.0662 48.2102 70.9799 48.1328 70.8734 48.1328Z" fill="#263238"/>
<path d="M73.0136 48.1328H71.6343C71.5278 48.1328 71.4414 48.2102 71.4414 48.3057V48.3363C71.4414 48.4318 71.5278 48.5092 71.6343 48.5092H73.0136C73.1201 48.5092 73.2064 48.4318 73.2064 48.3363V48.3057C73.2064 48.2102 73.1201 48.1328 73.0136 48.1328Z" fill="#263238"/>
<path d="M68.453 49.0703H66.478C66.3715 49.0703 66.2852 49.1477 66.2852 49.2432V49.2738C66.2852 49.3693 66.3715 49.4467 66.478 49.4467H68.453C68.5595 49.4467 68.6458 49.3693 68.6458 49.2738V49.2432C68.6458 49.1477 68.5595 49.0703 68.453 49.0703Z" fill="#263238"/>
<path d="M71.1874 49.0703H69.2124C69.1059 49.0703 69.0195 49.1477 69.0195 49.2432V49.2738C69.0195 49.3693 69.1059 49.4467 69.2124 49.4467H71.1874C71.2939 49.4467 71.3802 49.3693 71.3802 49.2738V49.2432C71.3802 49.1477 71.2939 49.0703 71.1874 49.0703Z" fill="#263238"/>
<path d="M73.0111 49.0703H71.9468C71.8402 49.0703 71.7539 49.1477 71.7539 49.2432V49.2738C71.7539 49.3693 71.8402 49.4467 71.9468 49.4467H73.0111C73.1177 49.4467 73.204 49.3693 73.204 49.2738V49.2432C73.204 49.1477 73.1177 49.0703 73.0111 49.0703Z" fill="#263238"/>
<path d="M67.6669 50.0039H66.478C66.3715 50.0039 66.2852 50.0813 66.2852 50.1768V50.2074C66.2852 50.3029 66.3715 50.3803 66.478 50.3803H67.6669C67.7734 50.3803 67.8598 50.3029 67.8598 50.2074V50.1768C67.8598 50.0813 67.7734 50.0039 67.6669 50.0039Z" fill="#263238"/>
<path d="M70.7132 50.0039H68.4233C68.3168 50.0039 68.2305 50.0813 68.2305 50.1768V50.2074C68.2305 50.3029 68.3168 50.3803 68.4233 50.3803H70.7132C70.8197 50.3803 70.9061 50.3029 70.9061 50.2074V50.1768C70.9061 50.0813 70.8197 50.0039 70.7132 50.0039Z" fill="#263238"/>
<path d="M73.0097 50.0039H71.4741C71.3676 50.0039 71.2812 50.0813 71.2812 50.1768V50.2074C71.2812 50.3029 71.3676 50.3803 71.4741 50.3803H73.0097C73.1162 50.3803 73.2025 50.3029 73.2025 50.2074V50.1768C73.2025 50.0813 73.1162 50.0039 73.0097 50.0039Z" fill="#263238"/>
<path d="M88.0394 49.4827C89.2434 49.4827 90.2194 48.6077 90.2194 47.5284C90.2194 46.4492 89.2434 45.5742 88.0394 45.5742C86.8354 45.5742 85.8594 46.4492 85.8594 47.5284C85.8594 48.6077 86.8354 49.4827 88.0394 49.4827Z" fill="#263238"/>
<path d="M87.8463 48.697L86.4914 47.4825C86.4669 47.4607 86.4474 47.4348 86.4342 47.4062C86.4209 47.3777 86.4141 47.3471 86.4141 47.3161C86.4141 47.2852 86.4209 47.2546 86.4342 47.226C86.4474 47.1975 86.4669 47.1716 86.4914 47.1498C86.5157 47.1279 86.5446 47.1104 86.5764 47.0985C86.6083 47.0866 86.6424 47.0805 86.6769 47.0805C86.7114 47.0805 86.7456 47.0866 86.7774 47.0985C86.8093 47.1104 86.8382 47.1279 86.8625 47.1498L87.839 48.0252L90.1752 45.9287C90.1995 45.9067 90.2284 45.8893 90.2603 45.8774C90.2921 45.8655 90.3263 45.8594 90.3608 45.8594C90.3953 45.8594 90.4294 45.8655 90.4613 45.8774C90.4931 45.8893 90.522 45.9067 90.5463 45.9287C90.5708 45.9505 90.5903 45.9764 90.6035 46.0049C90.6168 46.0335 90.6237 46.0641 90.6237 46.095C90.6237 46.1259 90.6168 46.1566 90.6035 46.1851C90.5903 46.2137 90.5708 46.2396 90.5463 46.2613L87.8463 48.697Z" fill="#407BFF"/>
<g opacity="0.5">
<path d="M87.8463 48.7009L86.4914 47.4864C86.4669 47.4646 86.4474 47.4387 86.4342 47.4101C86.4209 47.3816 86.4141 47.351 86.4141 47.32C86.4141 47.2891 86.4209 47.2585 86.4342 47.2299C86.4474 47.2014 86.4669 47.1755 86.4914 47.1537C86.5157 47.1318 86.5446 47.1143 86.5764 47.1024C86.6083 47.0905 86.6424 47.0844 86.6769 47.0844C86.7114 47.0844 86.7456 47.0905 86.7774 47.1024C86.8093 47.1143 86.8382 47.1318 86.8625 47.1537L87.839 48.0291L90.1752 45.9326C90.1995 45.9106 90.2284 45.8932 90.2603 45.8813C90.2921 45.8694 90.3263 45.8633 90.3608 45.8633C90.3953 45.8633 90.4294 45.8694 90.4613 45.8813C90.4931 45.8932 90.522 45.9106 90.5463 45.9326C90.5708 45.9544 90.5903 45.9803 90.6035 46.0088C90.6168 46.0374 90.6237 46.068 90.6237 46.0989C90.6237 46.1299 90.6168 46.1605 90.6035 46.189C90.5903 46.2176 90.5708 46.2435 90.5463 46.2652L87.8463 48.7009Z" fill="white"/>
</g>
<path d="M88.0394 37.6545C89.2434 37.6545 90.2194 36.7796 90.2194 35.7003C90.2194 34.621 89.2434 33.7461 88.0394 33.7461C86.8354 33.7461 85.8594 34.621 85.8594 35.7003C85.8594 36.7796 86.8354 37.6545 88.0394 37.6545Z" fill="#263238"/>
<path d="M89.3657 34.5107C89.3414 34.4888 89.3125 34.4713 89.2807 34.4594C89.2488 34.4475 89.2147 34.4414 89.1802 34.4414C89.1457 34.4414 89.1115 34.4475 89.0797 34.4594C89.0478 34.4713 89.0189 34.4888 88.9946 34.5107L88.0401 35.3686L87.0831 34.5107C87.0589 34.4888 87.03 34.4713 86.9981 34.4594C86.9663 34.4475 86.9321 34.4414 86.8976 34.4414C86.8631 34.4414 86.8289 34.4475 86.7971 34.4594C86.7653 34.4713 86.7364 34.4888 86.7121 34.5107C86.6638 34.5553 86.6367 34.6149 86.6367 34.6771C86.6367 34.7392 86.6638 34.7988 86.7121 34.8434L87.669 35.7012L86.7121 36.5569C86.6638 36.6014 86.6367 36.6611 86.6367 36.7232C86.6367 36.7853 86.6638 36.845 86.7121 36.8895C86.7364 36.9115 86.7653 36.9289 86.7971 36.9408C86.8289 36.9527 86.8631 36.9588 86.8976 36.9588C86.9321 36.9588 86.9663 36.9527 86.9981 36.9408C87.03 36.9289 87.0589 36.9115 87.0831 36.8895L88.0401 36.0338L88.9946 36.8895C89.0189 36.9115 89.0478 36.9289 89.0797 36.9408C89.1115 36.9527 89.1457 36.9588 89.1802 36.9588C89.2147 36.9588 89.2488 36.9527 89.2807 36.9408C89.3125 36.9289 89.3414 36.9115 89.3657 36.8895C89.3902 36.8677 89.4097 36.8418 89.4229 36.8133C89.4362 36.7847 89.443 36.7541 89.443 36.7232C89.443 36.6923 89.4362 36.6616 89.4229 36.6331C89.4097 36.6045 89.3902 36.5786 89.3657 36.5569L88.4112 35.7012L89.3657 34.8434C89.3902 34.8216 89.4097 34.7957 89.4229 34.7671C89.4362 34.7386 89.443 34.708 89.443 34.6771C89.443 34.6461 89.4362 34.6155 89.4229 34.587C89.4097 34.5584 89.3902 34.5325 89.3657 34.5107Z" fill="#407BFF"/>
<path opacity="0.5" d="M89.3657 34.5107C89.3414 34.4888 89.3125 34.4713 89.2807 34.4594C89.2488 34.4475 89.2147 34.4414 89.1802 34.4414C89.1457 34.4414 89.1115 34.4475 89.0797 34.4594C89.0478 34.4713 89.0189 34.4888 88.9946 34.5107L88.0401 35.3686L87.0831 34.5107C87.0589 34.4888 87.03 34.4713 86.9981 34.4594C86.9663 34.4475 86.9321 34.4414 86.8976 34.4414C86.8631 34.4414 86.8289 34.4475 86.7971 34.4594C86.7653 34.4713 86.7364 34.4888 86.7121 34.5107C86.6638 34.5553 86.6367 34.6149 86.6367 34.6771C86.6367 34.7392 86.6638 34.7988 86.7121 34.8434L87.669 35.7012L86.7121 36.5569C86.6638 36.6014 86.6367 36.6611 86.6367 36.7232C86.6367 36.7853 86.6638 36.845 86.7121 36.8895C86.7364 36.9115 86.7653 36.9289 86.7971 36.9408C86.8289 36.9527 86.8631 36.9588 86.8976 36.9588C86.9321 36.9588 86.9663 36.9527 86.9981 36.9408C87.03 36.9289 87.0589 36.9115 87.0831 36.8895L88.0401 36.0338L88.9946 36.8895C89.0189 36.9115 89.0478 36.9289 89.0797 36.9408C89.1115 36.9527 89.1457 36.9588 89.1802 36.9588C89.2147 36.9588 89.2488 36.9527 89.2807 36.9408C89.3125 36.9289 89.3414 36.9115 89.3657 36.8895C89.3902 36.8677 89.4097 36.8418 89.4229 36.8133C89.4362 36.7847 89.443 36.7541 89.443 36.7232C89.443 36.6923 89.4362 36.6616 89.4229 36.6331C89.4097 36.6045 89.3902 36.5786 89.3657 36.5569L88.4112 35.7012L89.3657 34.8434C89.3902 34.8216 89.4097 34.7957 89.4229 34.7671C89.4362 34.7386 89.443 34.708 89.443 34.6771C89.443 34.6461 89.4362 34.6155 89.4229 34.587C89.4097 34.5584 89.3902 34.5325 89.3657 34.5107Z" fill="white"/>
<path d="M86.9119 35.938H84.4145C84.344 35.938 84.2763 35.9129 84.2264 35.8681C84.1765 35.8234 84.1484 35.7627 84.1484 35.6995C84.1484 35.6362 84.1765 35.5755 84.2264 35.5308C84.2763 35.4861 84.344 35.4609 84.4145 35.4609H86.9119V35.938Z" fill="#263238"/>
<path d="M73.0779 32.9895L64.6605 34.8956L56.2455 32.9895C55.7757 32.8808 55.3592 32.6356 55.0611 32.2924C54.763 31.9492 54.6 31.5272 54.5977 31.0922V28.0284C54.5977 27.7716 54.6541 27.5173 54.7638 27.2801C54.8735 27.0428 55.0343 26.8273 55.237 26.6458C55.4397 26.4643 55.6803 26.3204 55.9451 26.2223C56.2099 26.1243 56.4936 26.0739 56.7801 26.0742H72.5433C73.1215 26.0742 73.676 26.2801 74.0848 26.6466C74.4936 27.0131 74.7233 27.5101 74.7233 28.0284V31.0922C74.7211 31.5269 74.5585 31.9487 74.2608 32.2919C73.9632 32.6351 73.5473 32.8803 73.0779 32.9895Z" fill="#407BFF"/>
<path d="M57.0151 28.9912C57.0859 29.0204 57.149 29.0625 57.2004 29.115C57.2517 29.1675 57.2902 29.2291 57.3132 29.2958C57.3363 29.3625 57.3434 29.4328 57.3341 29.5021C57.3247 29.5714 57.2992 29.6382 57.2592 29.6981C57.1992 29.7765 57.1141 29.8368 57.0151 29.871C56.9026 29.9143 56.781 29.9352 56.6586 29.9322H56.3486V30.313H55.9922V28.93H56.6586C56.781 28.927 56.9026 28.9479 57.0151 28.9912ZM56.8857 29.6084C56.9121 29.5853 56.9331 29.5578 56.9475 29.5273C56.9618 29.4969 56.9692 29.4642 56.9692 29.4311C56.9692 29.3981 56.9618 29.3653 56.9475 29.3349C56.9331 29.3044 56.9121 29.2769 56.8857 29.2538C56.8148 29.2083 56.7286 29.1858 56.6416 29.1904H56.3511V29.6718H56.6318C56.7189 29.6764 56.8051 29.654 56.8759 29.6084H56.8857Z" fill="white"/>
<path d="M57.751 30.1727C57.6869 30.1097 57.6376 30.0358 57.6061 29.9553C57.5746 29.8748 57.5617 29.7895 57.5679 29.7044V28.9297H57.9244V29.6912C57.9244 29.9407 58.0391 30.0633 58.2686 30.0633C58.3161 30.0664 58.3637 30.0599 58.4081 30.0444C58.4524 30.0289 58.4923 30.0047 58.5249 29.9735C58.5913 29.892 58.6225 29.7918 58.6128 29.6912V28.9297H58.9643V29.7044C58.9599 29.8293 58.9158 29.9505 58.8372 30.0538C58.7586 30.157 58.6487 30.238 58.5205 30.2872C58.3923 30.3364 58.2511 30.3517 58.1135 30.3315C57.9759 30.3112 57.8476 30.2561 57.7437 30.1727H57.751Z" fill="white"/>
<path d="M59.3203 28.9297H59.6767V30.0523H60.4506V30.3127H59.3203V28.9297Z" fill="white"/>
<path d="M60.6484 28.9297H61.0049V30.0523H61.7787V30.3127H60.6484V28.9297Z" fill="white"/>
<path d="M63.5854 30.313L63.2876 29.9279H62.958V30.313H62.6016V28.93H63.2705C63.392 28.927 63.5129 28.9479 63.6244 28.9912C63.721 29.026 63.8031 29.0868 63.8595 29.1652C63.9159 29.2436 63.9438 29.3357 63.9394 29.4289C63.9425 29.5234 63.9136 29.6165 63.8564 29.6959C63.7968 29.7742 63.7114 29.8339 63.6122 29.8666L63.9589 30.3043L63.5854 30.313ZM63.4951 29.2538C63.4242 29.2083 63.338 29.1859 63.2509 29.1904H62.9604V29.6718H63.2509C63.3377 29.677 63.4239 29.6554 63.4951 29.6106C63.5234 29.5884 63.5456 29.5607 63.56 29.5295C63.5744 29.4984 63.5806 29.4647 63.5781 29.4311C63.5802 29.3978 63.5738 29.3646 63.5594 29.3339C63.5451 29.3032 63.523 29.2758 63.4951 29.2538Z" fill="white"/>
<path d="M65.4203 30.0567V30.3127H64.2266V28.9297H65.391V29.1857H64.5805V29.4877H65.2958V29.735H64.5805V30.0567H65.4203Z" fill="white"/>
<path d="M67.376 30.4621C67.3272 30.5162 67.2655 30.5595 67.1953 30.5891C67.1182 30.6185 67.035 30.6327 66.9512 30.6307C66.8426 30.632 66.7353 30.6095 66.6387 30.565C66.5202 30.502 66.4131 30.423 66.3213 30.3308C66.188 30.3177 66.06 30.2765 65.9478 30.2105C65.844 30.1474 65.7599 30.0615 65.7037 29.961C65.6425 29.8565 65.6114 29.7399 65.6134 29.6218C65.6111 29.4932 65.6492 29.3665 65.7232 29.2563C65.7946 29.1475 65.8986 29.0588 66.0235 29.0003C66.1575 28.9385 66.3061 28.9062 66.4568 28.9062C66.6076 28.9062 66.7561 28.9385 66.8902 29.0003C67.0145 29.0594 67.1184 29.148 67.1904 29.2563C67.2663 29.3659 67.3053 29.4928 67.3027 29.6218C67.3054 29.7737 67.2522 29.9221 67.1514 30.0442C67.0515 30.1649 66.9112 30.2538 66.751 30.298C66.7818 30.3282 66.8181 30.3533 66.8584 30.3724C66.8926 30.3873 66.9302 30.3948 66.9683 30.3943C67.0147 30.3932 67.0603 30.3834 67.1023 30.3657C67.1443 30.348 67.1818 30.3227 67.2124 30.2915L67.376 30.4621ZM66.0357 29.8516C66.0765 29.9172 66.1364 29.9717 66.209 30.0092C66.2837 30.0462 66.3679 30.0651 66.4532 30.0639C66.5385 30.0651 66.6226 30.0462 66.6973 30.0092C66.7692 29.9708 66.8289 29.9166 66.8706 29.8516C66.9107 29.7803 66.9317 29.7016 66.9317 29.6218C66.9317 29.542 66.9107 29.4633 66.8706 29.392C66.8289 29.3271 66.7692 29.2728 66.6973 29.2345C66.6226 29.1974 66.5385 29.1786 66.4532 29.1798C66.3679 29.1786 66.2837 29.1974 66.209 29.2345C66.1364 29.2719 66.0765 29.3264 66.0357 29.392C65.994 29.4629 65.9722 29.5417 65.9722 29.6218C65.9722 29.7019 65.994 29.7808 66.0357 29.8516Z" fill="white"/>
<path d="M67.7301 30.1727C67.6651 30.1102 67.615 30.0364 67.5831 29.9558C67.5512 29.8752 67.5381 29.7897 67.5446 29.7044V28.9297H67.9035V29.6912C67.9035 29.9407 68.0182 30.0633 68.2452 30.0633C68.2927 30.0665 68.3404 30.0601 68.3848 30.0446C68.4292 30.0291 68.4691 30.0048 68.5016 29.9735C68.5679 29.892 68.5991 29.7918 68.5895 29.6912V28.9297H68.9434V29.7044C68.939 29.8293 68.8949 29.9505 68.8163 30.0538C68.7377 30.157 68.6278 30.238 68.4996 30.2872C68.3714 30.3364 68.2302 30.3517 68.0926 30.3315C67.955 30.3112 67.8267 30.2561 67.7228 30.1727H67.7301Z" fill="white"/>
<path d="M70.4892 30.0567V30.3127H69.293V28.9297H70.4599V29.1857H69.6494V29.4877H70.3647V29.735H69.6494V30.0567H70.4892Z" fill="white"/>
<path d="M70.9282 30.2956C70.8296 30.2712 70.7364 30.232 70.6523 30.1796L70.7744 29.9389C70.8492 29.9846 70.9316 30.0193 71.0185 30.0418C71.1068 30.0678 71.1991 30.0811 71.292 30.0812C71.3694 30.0856 71.4467 30.0721 71.5165 30.0418C71.5384 30.0315 71.5568 30.0161 71.5697 29.9972C71.5826 29.9783 71.5895 29.9567 71.5898 29.9345C71.59 29.9186 71.5861 29.9028 71.5785 29.8884C71.5709 29.874 71.5597 29.8613 71.5458 29.8514C71.5132 29.8279 71.4759 29.81 71.436 29.7989C71.3896 29.7857 71.331 29.7726 71.2529 29.7573C71.1553 29.7369 71.0591 29.7113 70.9648 29.6807C70.89 29.6562 70.8236 29.6147 70.772 29.5603C70.7161 29.4987 70.6874 29.4208 70.6914 29.3415C70.6906 29.2636 70.7161 29.1873 70.7646 29.1227C70.8194 29.0528 70.8958 28.9987 70.9844 28.9673C71.0977 28.9272 71.2189 28.9078 71.3408 28.9104C71.4388 28.9102 71.5364 28.9213 71.6313 28.9432C71.7175 28.9613 71.7999 28.9915 71.8754 29.0329L71.7656 29.2758C71.6359 29.2075 71.4887 29.1705 71.3383 29.1686C71.2614 29.1633 71.1843 29.1778 71.1162 29.2102C71.0939 29.2222 71.0754 29.2392 71.0626 29.2596C71.0497 29.2799 71.043 29.3028 71.0429 29.3262C71.0433 29.3491 71.0515 29.3715 71.0663 29.3902C71.0811 29.409 71.1019 29.4233 71.1259 29.4312C71.2044 29.4615 71.2862 29.4843 71.3701 29.4991C71.4677 29.5194 71.5639 29.545 71.6581 29.5756C71.7328 29.5994 71.7992 29.6401 71.851 29.6938C71.9077 29.755 71.9365 29.8332 71.9316 29.9127C71.9326 29.9906 71.907 30.0669 71.8583 30.1315C71.8021 30.201 71.7251 30.2549 71.6362 30.2869C71.522 30.3272 71.4 30.3466 71.2773 30.3438C71.159 30.342 71.0416 30.3258 70.9282 30.2956Z" fill="white"/>
<path d="M72.4765 29.1901H71.9883V28.9297H73.3334V29.1901H72.8452V30.3127H72.4765V29.1901Z" fill="white"/>
<path d="M31.3064 49.4581H46.032C46.1218 49.4648 46.2055 49.5014 46.2665 49.5608C46.3275 49.6202 46.3613 49.698 46.3613 49.7787C46.3613 49.8595 46.3275 49.9372 46.2665 49.9966C46.2055 50.056 46.1218 50.0927 46.032 50.0993H31.3064C31.257 50.103 31.2072 50.0974 31.1603 50.083C31.1133 50.0685 31.0703 50.0455 31.0338 50.0154C30.9973 49.9853 30.9681 49.9487 30.9482 49.9079C30.9283 49.8672 30.918 49.8232 30.918 49.7787C30.918 49.7342 30.9283 49.6902 30.9482 49.6495C30.9681 49.6088 30.9973 49.5722 31.0338 49.5421C31.0703 49.5119 31.1133 49.4889 31.1603 49.4745C31.2072 49.46 31.257 49.4545 31.3064 49.4581Z" fill="#1A2E35"/>
<path d="M45.8362 49.8955H39.7331C39.7059 49.8955 39.679 49.8896 39.6548 49.8784C39.6306 49.8672 39.6098 49.8509 39.594 49.831C39.5783 49.8111 39.568 49.7881 39.5642 49.7639C39.5604 49.7397 39.563 49.7151 39.572 49.692L42.0303 43.4004C42.0638 43.3161 42.1252 43.243 42.2064 43.191C42.2876 43.139 42.3846 43.1105 42.4844 43.1094H48.5875C48.6148 43.1094 48.6416 43.1153 48.6658 43.1265C48.69 43.1377 48.7108 43.154 48.7266 43.1739C48.7424 43.1938 48.7526 43.2168 48.7564 43.241C48.7603 43.2652 48.7576 43.2898 48.7486 43.3129L46.2903 49.6045C46.2569 49.6888 46.1954 49.7619 46.1142 49.8139C46.0331 49.866 45.936 49.8944 45.8362 49.8955Z" fill="#1A2E35"/>
<path d="M46.0526 49.8955H39.9494C39.9224 49.8952 39.8958 49.889 39.872 49.8777C39.8481 49.8663 39.8276 49.85 39.8121 49.8301C39.7966 49.8103 39.7866 49.7874 39.7829 49.7634C39.7792 49.7394 39.7819 49.7149 39.7907 49.692L42.2466 43.4004C42.2802 43.3158 42.342 43.2424 42.4237 43.1904C42.5054 43.1383 42.6029 43.11 42.7032 43.1094H48.8063C48.8333 43.1099 48.8599 43.1161 48.8838 43.1274C48.9077 43.1388 48.9283 43.155 48.944 43.1748C48.9596 43.1946 48.9699 43.2174 48.974 43.2413C48.978 43.2653 48.9758 43.2898 48.9674 43.3129L46.5066 49.6067C46.4728 49.6906 46.4112 49.7632 46.33 49.8148C46.2489 49.8664 46.1521 49.8946 46.0526 49.8955Z" fill="#1A2E35"/>
<path opacity="0.7" d="M46.0526 49.8955H39.9494C39.9224 49.8952 39.8958 49.889 39.872 49.8777C39.8481 49.8663 39.8276 49.85 39.8121 49.8301C39.7966 49.8103 39.7866 49.7874 39.7829 49.7634C39.7792 49.7394 39.7819 49.7149 39.7907 49.692L42.2466 43.4004C42.2802 43.3158 42.342 43.2424 42.4237 43.1904C42.5054 43.1383 42.6029 43.11 42.7032 43.1094H48.8063C48.8333 43.1099 48.8599 43.1161 48.8838 43.1274C48.9077 43.1388 48.9283 43.155 48.944 43.1748C48.9596 43.1946 48.9699 43.2174 48.974 43.2413C48.978 43.2653 48.9758 43.2898 48.9674 43.3129L46.5066 49.6067C46.4728 49.6906 46.4112 49.7632 46.33 49.8148C46.2489 49.8664 46.1521 49.8946 46.0526 49.8955Z" fill="white"/>
<path opacity="0.7" d="M39.1648 50.0915C39.2142 50.0952 39.264 50.0896 39.3109 50.0752C39.3579 50.0607 39.4009 50.0377 39.4374 50.0076C39.4739 49.9774 39.5031 49.9409 39.523 49.9001C39.5429 49.8594 39.5532 49.8154 39.5532 49.7709C39.5532 49.7264 39.5429 49.6824 39.523 49.6417C39.5031 49.601 39.4739 49.5644 39.4374 49.5343C39.4009 49.5041 39.3579 49.4811 39.3109 49.4667C39.264 49.4522 39.2142 49.4466 39.1648 49.4503H31.3064C31.257 49.4466 31.2072 49.4522 31.1603 49.4667C31.1133 49.4811 31.0703 49.5041 31.0338 49.5343C30.9973 49.5644 30.9681 49.601 30.9482 49.6417C30.9283 49.6824 30.918 49.7264 30.918 49.7709C30.918 49.8154 30.9283 49.8594 30.9482 49.9001C30.9681 49.9409 30.9973 49.9774 31.0338 50.0076C31.0703 50.0377 31.1133 50.0607 31.1603 50.0752C31.2072 50.0896 31.257 50.0952 31.3064 50.0915H39.1648Z" fill="white"/>
<path d="M46.9175 43.3711H48.6117L48.4701 43.7366H46.7734L46.9175 43.3711Z" fill="#407BFF"/>
<path d="M45.7552 29.1235C51.3478 29.1235 55.8815 25.0595 55.8815 20.0461C55.8815 15.0328 51.3478 10.9688 45.7552 10.9688C40.1626 10.9688 35.6289 15.0328 35.6289 20.0461C35.6289 25.0595 40.1626 29.1235 45.7552 29.1235Z" fill="#407BFF"/>
<path opacity="0.3" d="M45.7552 29.1235C51.3478 29.1235 55.8815 25.0595 55.8815 20.0461C55.8815 15.0328 51.3478 10.9688 45.7552 10.9688C40.1626 10.9688 35.6289 15.0328 35.6289 20.0461C35.6289 25.0595 40.1626 29.1235 45.7552 29.1235Z" fill="white"/>
<path opacity="0.9" d="M42.6324 22.6386V17.7432C43.0966 17.6037 43.4903 17.3208 43.7432 16.9451C43.9961 16.5694 44.0917 16.1252 44.0129 15.6921C43.9341 15.259 43.686 14.8652 43.313 14.5809C42.9401 14.2967 42.4665 14.1406 41.9769 14.1406C41.4874 14.1406 41.0138 14.2967 40.6408 14.5809C40.2678 14.8652 40.0198 15.259 39.941 15.6921C39.8622 16.1252 39.9578 16.5694 40.2107 16.9451C40.4636 17.3208 40.8573 17.6037 41.3214 17.7432V22.6386C40.858 22.778 40.4649 23.0606 40.2124 23.4359C39.96 23.8112 39.8647 24.2547 39.9434 24.6873C40.0222 25.1198 40.27 25.5131 40.6426 25.7969C41.0151 26.0807 41.488 26.2366 41.9769 26.2366C42.4658 26.2366 42.9388 26.0807 43.3113 25.7969C43.6838 25.5131 43.9316 25.1198 44.0104 24.6873C44.0892 24.2547 43.9939 23.8112 43.7414 23.4359C43.489 23.0606 43.0959 22.778 42.6324 22.6386ZM41.9757 15.3206C42.124 15.3202 42.2692 15.3592 42.3927 15.4328C42.5163 15.5063 42.6128 15.6111 42.6699 15.7338C42.727 15.8565 42.7421 15.9917 42.7135 16.1222C42.6849 16.2526 42.6137 16.3725 42.509 16.4667C42.4042 16.5609 42.2707 16.6251 42.1253 16.6512C41.9798 16.6773 41.829 16.6641 41.6919 16.6133C41.5548 16.5626 41.4376 16.4765 41.3552 16.3659C41.2727 16.2554 41.2287 16.1254 41.2287 15.9924C41.2287 15.8146 41.3073 15.6441 41.4473 15.5182C41.5874 15.3922 41.7774 15.3212 41.9757 15.3206ZM41.9757 25.0589C41.8274 25.0589 41.6824 25.0194 41.5591 24.9455C41.4358 24.8716 41.3397 24.7665 41.2831 24.6437C41.2264 24.5208 41.2117 24.3856 41.2408 24.2552C41.2699 24.1248 41.3416 24.0051 41.4466 23.9112C41.5517 23.8174 41.6854 23.7536 41.831 23.7279C41.9765 23.7022 42.1273 23.7158 42.2642 23.767C42.4011 23.8182 42.518 23.9046 42.6 24.0154C42.6821 24.1262 42.7256 24.2563 42.7252 24.3893C42.7252 24.4774 42.7058 24.5646 42.6681 24.646C42.6304 24.7274 42.5751 24.8013 42.5055 24.8635C42.4359 24.9258 42.3532 24.975 42.2623 25.0086C42.1714 25.0421 42.074 25.0592 41.9757 25.0589Z" fill="white"/>
<path opacity="0.9" d="M51.1241 22.6386V17.8373C51.1235 17.1927 50.8375 16.5746 50.329 16.1188C49.8205 15.6629 49.131 15.4066 48.4119 15.406H46.4589V14.4453L44.7305 15.9947L46.4589 17.5462V16.5834H48.4119C48.7816 16.5857 49.1354 16.7187 49.3964 16.9534C49.6574 17.1882 49.8045 17.5058 49.8058 17.8373V22.6386C49.3417 22.778 48.9479 23.0609 48.695 23.4367C48.4421 23.8124 48.3465 24.2565 48.4253 24.6896C48.5042 25.1227 48.7522 25.5166 49.1252 25.8008C49.4982 26.0851 49.9718 26.2411 50.4613 26.2411C50.9508 26.2411 51.4244 26.0851 51.7974 25.8008C52.1704 25.5166 52.4184 25.1227 52.4973 24.6896C52.5761 24.2565 52.4805 23.8124 52.2276 23.4367C51.9747 23.0609 51.5809 22.778 51.1168 22.6386H51.1241ZM50.4698 25.059C50.3215 25.059 50.1765 25.0195 50.0532 24.9456C49.9299 24.8717 49.8339 24.7666 49.7772 24.6437C49.7205 24.5208 49.7059 24.3856 49.735 24.2552C49.7641 24.1249 49.8357 24.0052 49.9408 23.9113C50.0458 23.8174 50.1796 23.7536 50.3251 23.7279C50.4707 23.7023 50.6214 23.7159 50.7583 23.7671C50.8953 23.8182 51.0121 23.9047 51.0942 24.0155C51.1762 24.1262 51.2198 24.2563 51.2193 24.3893C51.2193 24.4774 51.1999 24.5647 51.1622 24.6461C51.1245 24.7275 51.0693 24.8014 50.9996 24.8636C50.93 24.9258 50.8474 24.9751 50.7565 25.0086C50.6656 25.0421 50.5682 25.0592 50.4698 25.059Z" fill="white"/>
</svg>
